<svg width="33" height="23" viewBox="0 0 33 23" fill="none" xmlns="http://www.w3.org/2000/svg">
<path d="M3.29184 18.7645C3.70395 20.9886 5.65984 22.6167 7.9277 22.6167C10.2036 22.6167 12.1518 20.9847 12.5678 18.7607H20.2235C21.3675 18.7607 21.3675 17.0246 20.2235 17.0246C13.9514 17.0246 8.07562 17.0246 1.80348 17.0285C2.1676 14.4046 4.17963 12.2924 6.78756 11.8086C7.83948 11.6206 7.6637 10.0126 6.61568 10.0126C5.87183 10.0126 5.26354 9.40459 5.26354 8.66464C5.26354 7.94479 5.89552 7.3125 6.61568 7.3125H11.4636C12.4675 7.3125 12.7155 7.8404 12.8235 8.76843L13.7075 13.9403C13.7755 14.3683 14.1475 14.6682 14.5635 14.6682L21.8278 14.6721C22.3077 14.6721 22.6997 14.2801 22.6997 13.796L20.7276 1.74384H22.1715L25.0995 11.136C25.2396 11.588 25.7156 11.8439 26.1676 11.7119C27.2756 11.4197 28.5078 11.4359 29.6076 11.7518C30.1916 11.9236 30.7477 12.1798 31.2516 12.5037C32.2156 13.1198 33.1518 11.6558 32.1916 11.0397C31.5515 10.6318 30.8437 10.3036 30.0918 10.0877C28.8959 9.73558 27.7478 9.67978 26.5237 9.86365L23.6398 0.615791C23.5237 0.243863 23.1797 0.00390571 22.8116 0.00390571L16.7315 0C15.5837 0 15.5837 1.74386 16.7315 1.74386H18.9676L20.8035 12.9239H15.2996L14.5477 8.50393C14.3197 6.71179 13.3398 5.56786 11.4637 5.56786H6.61575C4.93968 5.56786 3.51976 6.98386 3.51976 8.66386C3.51976 9.48779 3.85178 10.2439 4.3839 10.7997C1.70782 12.1437 -3.29345e-05 14.8837 -3.29345e-05 17.8918C-3.29345e-05 18.3759 0.388084 18.7679 0.871898 18.7679L0.943884 18.764H3.29181L3.29184 18.7645ZM5.08398 18.7645L10.776 18.7606C10.3999 20.0087 9.23998 20.8686 7.92805 20.8686C6.62005 20.8686 5.46012 20.0126 5.08405 18.7645L5.08398 18.7645ZM27.8118 13.1767C25.2078 13.1767 23.092 15.2927 23.092 17.8926C23.092 20.5006 25.2081 22.6167 27.8118 22.6167C30.4198 22.6167 32.5317 20.5006 32.5317 17.8926C32.5317 15.2885 30.4198 13.1767 27.8118 13.1767ZM27.8118 14.9205C29.4558 14.9205 30.7878 16.2525 30.7878 17.8926C30.7878 19.5366 29.4558 20.8686 27.8118 20.8686C26.1678 20.8686 24.8358 19.5405 24.8358 17.8926C24.8358 16.2486 26.164 14.9205 27.8118 14.9205Z" fill="#7E7E7E"/>
</svg>
