<svg width="36" height="29" viewBox="0 0 36 29" fill="none" xmlns="http://www.w3.org/2000/svg">
<path d="M35.7863 15.3603L34.0665 10.1602C33.6264 8.84022 32.4264 7.96014 31.0265 7.96014H26.3463V3.20007C26.3463 1.44 24.9063 0 23.1462 0H5.10624C3.62631 0 2.30631 1.08007 1.98624 2.52007L0.0663113 11.3601C-0.0137673 11.7602 -0.0137675 12.16 0.0264118 12.6L1.98648 23.76C2.26662 25.2801 3.58634 26.4001 5.14634 26.4001H6.02634C6.38628 27.76 7.6262 28.8002 9.10641 28.8002C10.0665 28.8002 10.9063 28.3602 11.5066 27.7201C12.1064 28.4001 12.9466 28.8002 13.9067 28.8002C15.3866 28.8002 16.6266 27.7603 16.9868 26.4001H27.1868C27.5467 27.76 28.7866 28.8002 30.2668 28.8002C31.7869 28.8002 33.0668 27.7201 33.3868 26.3203C34.8268 26.0003 35.8668 24.7204 35.8668 23.2003L35.8662 16.4001C35.9463 16.0401 35.9061 15.7201 35.7861 15.3601L35.7863 15.3603ZM9.14631 27.2003C8.26631 27.2003 7.54645 26.4804 7.54645 25.6004C7.54645 24.7204 8.26631 24.0006 9.14631 24.0006C10.0263 24.0006 10.7462 24.7204 10.7462 25.6004C10.7464 26.4804 10.0665 27.2003 9.14631 27.2003ZM13.9465 27.2003C13.0665 27.2003 12.3467 26.4804 12.3467 25.6004C12.3467 24.7204 13.0665 24.0006 13.9465 24.0006C14.8265 24.0006 15.5464 24.7204 15.5464 25.6004C15.5464 26.4804 14.8664 27.2003 13.9465 27.2003ZM24.7465 24.8004H17.0665C16.7066 23.4405 15.4667 22.4003 13.9865 22.4003C13.0264 22.4003 12.1865 22.8403 11.5863 23.4804C10.9864 22.8004 10.1463 22.4003 9.18617 22.4003C7.70624 22.4003 6.46631 23.4402 6.1061 24.8004H5.18645C4.42638 24.8004 3.74645 24.2404 3.62645 23.4804L1.62645 12.3204C1.58655 12.1204 1.58655 11.9203 1.62645 11.7205L3.50645 2.88054C3.66633 2.16069 4.30638 1.6004 5.06645 1.6004H23.1465C24.0265 1.6004 24.7463 2.32026 24.7463 3.20026L24.7465 24.8004ZM30.3464 9.60043H31.0263C31.7063 9.60043 32.3065 10.0404 32.5464 10.6805L34.0665 15.2003H30.3865V9.60043H30.3464ZM30.3464 27.2004C29.4664 27.2004 28.7465 26.4806 28.7465 25.6006C28.7465 24.7206 29.4664 24.0007 30.3464 24.0007C31.2264 24.0007 31.9462 24.7206 31.9462 25.6006C31.9465 26.4806 31.2666 27.2004 30.3464 27.2004ZM34.3464 23.2004C34.3464 23.8405 33.9463 24.4005 33.3863 24.6404C32.9862 23.3204 31.7865 22.4005 30.3464 22.4005C28.8665 22.4005 27.6265 23.4404 27.2663 24.8006H26.3464V9.60064H28.7465V16.0008C28.7465 16.4408 29.1065 16.8007 29.5465 16.8007H34.3464V23.2004Z" fill="#7E7E7E"/>
</svg>
