<svg width="37" height="18" viewBox="0 0 37 18" fill="none" xmlns="http://www.w3.org/2000/svg">
<path d="M6.48115 12.156C7.33695 11.3046 8.73746 11.3002 9.59318 12.156C10.4263 12.9891 10.4533 14.3629 9.64282 15.2231C8.72389 16.0832 7.40444 16.1913 6.48117 15.2727C5.61629 14.4169 5.62537 13.0118 6.48117 12.156L6.48115 12.156ZM25.8522 12.156C26.708 11.3002 28.1132 11.3002 28.969 12.156C29.8021 12.9935 29.8338 14.3629 29.0186 15.2231C28.1044 16.088 26.7711 16.1869 25.8525 15.2727C24.9876 14.4214 24.9967 13.0118 25.8525 12.156L25.8522 12.156ZM23.3615 12.7324H14.4803C13.9352 12.7324 13.4985 13.1738 13.4985 13.7142C13.4985 14.2545 13.9355 14.6959 14.4803 14.6959H23.3615C23.812 16.5561 25.4875 17.8802 27.4104 17.8802C29.3381 17.8802 31.0044 16.5561 31.4593 14.6959H32.6078L33.0313 14.6689C34.7023 14.4707 36.2021 13.0972 36.2021 11.3495L36.1795 11.0027C36.0941 10.5657 35.9499 10.1334 35.8597 9.70112C35.468 8.17869 34.932 7.23306 34.0671 6.57559C33.234 5.94507 32.1935 5.66582 30.7478 5.44055L25.4152 4.60744L22.8344 2.08541C21.8209 1.07664 20.7311 0 19.0871 0H10.9216C8.1608 0 7.00341 0.19823 5.2919 2.41836L2.99039 5.39093L0.796974 5.97181C0.342077 6.05727 -4.96914e-05 6.45813 -4.96914e-05 6.93562V13.7139C-4.96914e-05 14.2542 0.441342 14.6956 0.98169 14.6956H3.99005C4.44055 16.5558 6.11599 17.8799 8.03452 17.8799C10.336 17.8799 12.2049 16.011 12.2049 13.7139C12.2049 11.4124 10.3404 9.54781 8.03452 9.54781C6.11157 9.54781 4.44051 10.8673 3.98563 12.7321H1.96335V7.69242L3.80998 7.20138C4.03523 7.14295 4.22875 7.00315 4.35504 6.82314L6.84096 3.61179C8.14689 1.91845 8.76865 1.96341 10.9212 1.96341H19.0867C19.929 1.96341 20.7216 2.74692 21.4602 3.47668L24.266 6.22398C24.4325 6.38608 24.6398 6.47624 24.8516 6.49855L30.4498 7.37221C31.5893 7.55222 32.3775 7.74605 32.8864 8.1287C33.3593 8.48904 33.6835 9.11518 33.9539 10.1823C34.0306 10.493 34.2693 11.2542 34.2241 11.5288C34.1116 12.1772 33.418 12.6503 32.801 12.7223L31.4589 12.7267C31.004 10.8621 29.3329 9.54712 27.41 9.54712C25.4823 9.54712 23.8116 10.8666 23.3611 12.7314L23.3615 12.7324Z" fill="#7E7E7E"/>
</svg>
