<svg width="30" height="30" viewBox="0 0 30 30" fill="none" xmlns="http://www.w3.org/2000/svg">
<path d="M15.0001 30.0001H14.9363C11.975 29.9875 9.08378 29.0987 6.62685 27.4456C4.16992 25.7925 2.25724 23.4492 1.12985 20.711C0.00245602 17.9727 -0.289212 14.962 0.2916 12.0582C0.872411 9.15449 2.29971 6.48762 4.39365 4.39368C6.48758 2.29974 9.15446 0.872442 12.0582 0.29163C14.962 -0.289181 17.9727 0.00248653 20.7109 1.12988C23.4492 2.25727 25.7925 4.16995 27.4456 6.62688C29.0986 9.08381 29.9875 11.9751 30.0001 14.9363V14.9363V30.0001H15.0001Z" fill="white"/>
<path d="M12.3831 22.4681V17.7447H7.65967V12.383H12.3831V7.65961H17.7448V12.383H22.4682V17.7447H17.7448V22.4681H12.3831Z" fill="#494949"/>
</svg>
