<svg width="30" height="30" viewBox="0 0 30 30" fill="none" xmlns="http://www.w3.org/2000/svg">
<g clip-path="url(#clip0_58_929)">
<path d="M15.0001 30.0001H14.9363C11.9751 29.9875 9.08381 29.0986 6.62687 27.4456C4.16994 25.7925 2.25727 23.4492 1.12987 20.7109C0.0024789 17.9727 -0.289189 14.962 0.291623 12.0582C0.872434 9.15446 2.29974 6.48758 4.39367 4.39365C6.48761 2.29971 9.15448 0.872411 12.0582 0.2916C14.962 -0.289212 17.9727 0.00245602 20.711 1.12985C23.4492 2.25724 25.7925 4.16992 27.4456 6.62685C29.0987 9.08378 29.9875 11.975 30.0001 14.9363V30.0001H15.0001Z" fill="#2CB3FF"/>
<path d="M12.383 22.4681V17.7447H7.65958V12.383H12.383V7.65955H17.7447V12.383H22.4681V17.7447H17.7447V22.4681H12.383Z" fill="#D9D9D9"/>
</g>
<defs>
<clipPath id="clip0_58_929">
<rect width="30" height="30" fill="white"/>
</clipPath>
</defs>
</svg>
