<svg width="56" height="56" viewBox="0 0 56 56" fill="none" xmlns="http://www.w3.org/2000/svg">
<circle cx="28" cy="28.0001" r="28" fill="#4E4E4E"/>
<path d="M28.0001 43.0002H27.9363C24.975 42.9875 22.0838 42.0987 19.6269 40.4456C17.1699 38.7926 15.2572 36.4493 14.1298 33.711C13.0025 30.9727 12.7108 27.962 13.2916 25.0583C13.8724 22.1545 15.2997 19.4876 17.3936 17.3937C19.4876 15.2998 22.1545 13.8725 25.0582 13.2917C27.962 12.7108 30.9727 13.0025 33.7109 14.1299C36.4492 15.2573 38.7925 17.17 40.4456 19.6269C42.0986 22.0838 42.9875 24.9751 43.0001 27.9363V27.9363V43.0002H28.0001Z" fill="#2CB3FF"/>
<path d="M28.0001 43.0002H27.9363C24.975 42.9875 22.0838 42.0987 19.6269 40.4456C17.1699 38.7926 15.2572 36.4493 14.1298 33.711C13.0025 30.9727 12.7108 27.962 13.2916 25.0583C13.8724 22.1545 15.2997 19.4876 17.3936 17.3937C19.4876 15.2998 22.1545 13.8725 25.0582 13.2917C27.962 12.7108 30.9727 13.0025 33.7109 14.1299C36.4492 15.2573 38.7925 17.17 40.4456 19.6269C42.0986 22.0838 42.9875 24.9751 43.0001 27.9363V27.9363V43.0002H28.0001Z" fill="#5A87FF"/>
<path d="M25.3831 35.4681V30.7447H20.6597V25.383H25.3831V20.6596H30.7448V25.383H35.4682V30.7447H30.7448V35.4681H25.3831Z" fill="#494949"/>
</svg>
