<svg xmlns="http://www.w3.org/2000/svg" width="161" height="161" viewBox="0 0 161 161">
  <defs>
    <filter id="speed-alarm-3" x="0" y="0" width="161" height="161" filterUnits="userSpaceOnUse">
      <feOffset dx="3" dy="3" input="SourceAlpha"/>
      <feGaussianBlur stdDeviation="3" result="blur"/>
      <feFlood flood-opacity="0.161"/>
      <feComposite operator="in" in2="blur"/>
      <feComposite in="SourceGraphic"/>
    </filter>
    <linearGradient id="linear-gradient" x1="0.5" x2="0.5" y2="1" gradientUnits="objectBoundingBox">
      <stop offset="0" stop-color="#7f6aff"/>
      <stop offset="1" stop-color="#0085ff" stop-opacity="0.6"/>
    </linearGradient>
  </defs>
  <g id="speed-alarm" transform="translate(6 6)">
    <g transform="matrix(1, 0, 0, 1, -6, -6)" filter="url(#speed-alarm-3)">
      <rect id="speed-alarm-3-2" data-name="speed-alarm-3" width="143" height="143" rx="10" transform="translate(6 6)" fill="#fff"/>
    </g>
    <rect id="Rectangle_26-2" data-name="Rectangle 26-2" width="143" height="143" rx="10" fill="url(#linear-gradient)"/>
    <path id="Intersection_5-2" data-name="Intersection 5-2" d="M10,143A10,10,0,0,1,0,133V10A10,10,0,0,1,10,0H81.9A125.8,125.8,0,0,1,85,28,126,126,0,0,1,10.6,143Z" fill="#fff" opacity="0.1"/>
    <path id="Intersection_4-2" data-name="Intersection 4-2" d="M0,10A10,10,0,0,1,10,0H32.6A70.3,70.3,0,0,1,37,24.5,69.3,69.3,0,0,1,0,85.9Z" fill="#fff" opacity="0.1"/>
    <g id="Group_2" data-name="Group 2">
      <g id="speed-alarm-icon">
        <path id="Vector" d="M80.9,78.5a19.7,19.7,0,1,1,19.8-19.7h0A19.8,19.8,0,0,1,80.9,78.5Zm0-35.9a16.2,16.2,0,1,0,.1,0Z" fill="#fff"/>
        <path id="Vector-2" d="M98.6,47.4a1.7,1.7,0,0,1-1.4-.7,21.8,21.8,0,0,0-5.4-5.1,1.776,1.776,0,1,1,1.9-3,20.9,20.9,0,0,1,6.3,5.9,1.9,1.9,0,0,1-.3,2.5,1.5,1.5,0,0,1-1.1.4Z" fill="#fff"/>
        <path id="Vector-3" d="M63.3,47.4a1.5,1.5,0,0,1-1.1-.4,1.7,1.7,0,0,1-.3-2.4,21.7,21.7,0,0,1,7.3-6.5,1.8,1.8,0,0,1,2.4.6h0a1.8,1.8,0,0,1-.6,2.4h-.1a20.3,20.3,0,0,0-6.2,5.5,1.9,1.9,0,0,1-1.4.8Z" fill="#fff"/>
        <path id="Vector-4" d="M84.1,38.7H77.9a2.6,2.6,0,0,1-2.6-2.6h0V34.6A2.6,2.6,0,0,1,77.9,32h6.2a2.5,2.5,0,0,1,2.5,2.5h0V36a2.6,2.6,0,0,1-2.5,2.7Z" fill="#fff"/>
        <path id="Vector-5" d="M91.1,47.6a1.8,1.8,0,0,1,.1,2.5L82.3,60a2,2,0,0,1-1.4.6,1.8,1.8,0,0,1-1.2-.5l-5.8-5.8a1.6,1.6,0,0,1,0-2.4h0a1.7,1.7,0,0,1,2.4-.1c.1,0,.1,0,.1.1l4.4,4.4,7.8-8.5A1.8,1.8,0,0,1,91.1,47.6Z" fill="#fff"/>
        <path id="Vector-6" d="M59,53.7H41.8A1.8,1.8,0,0,1,40,52h0a1.8,1.8,0,0,1,1.7-1.7H59A1.7,1.7,0,0,1,60.8,52h0A1.8,1.8,0,0,1,59,53.7Z" fill="#fff"/>
        <path id="Vector-7" d="M57.6,62.2H44.5a1.7,1.7,0,0,1-1.8-1.7h0a1.8,1.8,0,0,1,1.7-1.8H57.6a1.7,1.7,0,0,1,1.8,1.7h0a1.8,1.8,0,0,1-1.8,1.7Z" fill="#fff"/>
        <path id="Vector-8" d="M59.7,70.7H49.6A1.7,1.7,0,0,1,47.9,69h0a1.7,1.7,0,0,1,1.7-1.8H59.7a1.8,1.8,0,0,1,1.8,1.7h0a1.8,1.8,0,0,1-1.7,1.7Z" fill="#fff"/>
      </g>
      <g id="Speed_Alarm" data-name="Speed Alarm">
        <text id="Speed_Alarm-2" data-name="Speed Alarm" transform="translate(27.9 107.8)" fill="#fff" font-size="16" font-family="SegoeUI, Segoe UI"><tspan x="0" y="0">Speed Alarm</tspan></text>
      </g>
    </g>
  </g>
</svg>
