<svg width="32" height="29" viewBox="0 0 32 29" fill="none" xmlns="http://www.w3.org/2000/svg">
<path d="M17.6037 14.4036H20.804C21.6874 14.4036 22.4037 15.1138 22.4037 16.0036C22.4037 16.8874 21.6938 17.6038 20.804 17.6038H16.0033C15.5641 17.6038 15.1661 17.4282 14.8771 17.1422C14.5827 16.8466 14.4037 16.4502 14.4037 16.0185V9.58889C14.4037 8.71332 15.1139 8.00359 16.0037 8.00359C16.8873 8.00359 17.6037 8.72521 17.6037 9.58889L17.6037 14.4036ZM3.36018 9.25221C4.95629 5.09577 8.45158 1.73472 13.0811 0.494293C20.7631 -1.56411 28.6589 2.99464 30.7175 10.6767C32.7759 18.3586 28.2171 26.2545 20.5351 28.313C12.8531 30.3714 4.95726 25.8125 2.89875 18.1306L5.98983 17.3023C7.59061 23.277 13.7321 26.823 19.7067 25.2221C25.6814 23.6213 29.2274 17.4799 27.6265 11.5052C26.0256 5.53049 19.8843 1.98454 13.9096 3.58543C10.1316 4.59775 7.32472 7.42528 6.17657 10.8782L9.79825 12.9693L2.07122 15.04L0.000488281 7.31242L3.36018 9.25221Z" fill="white"/>
</svg>
