<svg width="56" height="56" viewBox="0 0 56 56" fill="none" xmlns="http://www.w3.org/2000/svg">
<circle cx="28" cy="28" r="28" fill="#4E4E4E"/>
<path d="M29.6037 27.4036H32.804C33.6874 27.4036 34.4037 28.1138 34.4037 29.0036C34.4037 29.8874 33.6938 30.6038 32.804 30.6038H28.0033C27.5641 30.6038 27.1661 30.4282 26.8771 30.1421C26.5827 29.8465 26.4037 29.4502 26.4037 29.0185V22.5889C26.4037 21.7133 27.1139 21.0036 28.0037 21.0036C28.8873 21.0036 29.6037 21.7252 29.6037 22.5889L29.6037 27.4036ZM15.3602 22.2522C16.9563 18.0957 20.4516 14.7347 25.0811 13.4943C32.7631 11.4359 40.6589 15.9946 42.7175 23.6766C44.7759 31.3586 40.2171 39.2545 32.5351 41.313C24.8531 43.3714 16.9573 38.8125 14.8987 31.1306L17.9898 30.3023C19.5906 36.277 25.7321 39.8229 31.7067 38.2221C37.6814 36.6213 41.2274 30.4798 39.6265 24.5051C38.0256 18.5305 31.8843 14.9845 25.9096 16.5854C22.1316 17.5977 19.3247 20.4252 18.1766 23.8781L21.7982 25.9692L14.0712 28.04L12.0005 20.3124L15.3602 22.2522Z" fill="#2CB3FF"/>
<path d="M29.6037 27.4036H32.804C33.6874 27.4036 34.4037 28.1138 34.4037 29.0036C34.4037 29.8874 33.6938 30.6038 32.804 30.6038H28.0033C27.5641 30.6038 27.1661 30.4282 26.8771 30.1421C26.5827 29.8465 26.4037 29.4502 26.4037 29.0185V22.5889C26.4037 21.7133 27.1139 21.0036 28.0037 21.0036C28.8873 21.0036 29.6037 21.7252 29.6037 22.5889L29.6037 27.4036ZM15.3602 22.2522C16.9563 18.0957 20.4516 14.7347 25.0811 13.4943C32.7631 11.4359 40.6589 15.9946 42.7175 23.6766C44.7759 31.3586 40.2171 39.2545 32.5351 41.313C24.8531 43.3714 16.9573 38.8125 14.8987 31.1306L17.9898 30.3023C19.5906 36.277 25.7321 39.8229 31.7067 38.2221C37.6814 36.6213 41.2274 30.4798 39.6265 24.5051C38.0256 18.5305 31.8843 14.9845 25.9096 16.5854C22.1316 17.5977 19.3247 20.4252 18.1766 23.8781L21.7982 25.9692L14.0712 28.04L12.0005 20.3124L15.3602 22.2522Z" fill="#5A87FF"/>
</svg>
