<svg width="20" height="29" viewBox="0 0 20 29" fill="none" xmlns="http://www.w3.org/2000/svg">
<path fill-rule="evenodd" clip-rule="evenodd" d="M9.04271 28.4908C9.13849 28.6462 9.27303 28.7747 9.43342 28.8638C9.59382 28.9529 9.77467 28.9997 9.95861 28.9997C10.1426 28.9997 10.3234 28.9529 10.4838 28.8638C10.6442 28.7747 10.7787 28.6462 10.8745 28.4908C14.2087 23.0857 20 13.8805 20 9.8564C20 4.42727 15.5271 0 9.95807 0C4.47294 0 0 4.42727 0 9.8564C0 13.8821 5.72047 23.0857 9.04271 28.4908ZM9.95807 5.65724C10.5163 5.65597 11.0692 5.76381 11.5852 5.97457C12.1012 6.18533 12.57 6.49487 12.9648 6.88541C13.3597 7.27595 13.6727 7.73982 13.8859 8.25039C14.0992 8.76097 14.2085 9.3082 14.2076 9.86068C14.2076 12.2633 12.3141 14.1396 9.96024 14.1396C7.60637 14.1396 5.71289 12.2655 5.71289 9.86068C5.71204 9.30858 5.82125 8.76173 6.03427 8.25147C6.24728 7.74121 6.55992 7.27756 6.95427 6.88709C7.34863 6.49661 7.81694 6.18699 8.33238 5.97595C8.84782 5.76491 9.40027 5.65661 9.95807 5.65724Z" fill="white"/>
</svg>
