<svg width="32" height="29" viewBox="0 0 32 29" fill="none" xmlns="http://www.w3.org/2000/svg">
<path d="M17.6036 14.4036H20.8039C21.6873 14.4036 22.4037 15.1138 22.4037 16.0036C22.4037 16.8874 21.6937 17.6038 20.8039 17.6038H16.0032C15.564 17.6038 15.166 17.4282 14.877 17.1421C14.5827 16.8465 14.4037 16.4502 14.4037 16.0185V9.58886C14.4037 8.71329 15.1139 8.00356 16.0037 8.00356C16.8873 8.00356 17.6036 8.72518 17.6036 9.58886L17.6036 14.4036ZM3.36012 9.25218C4.95622 5.09574 8.45152 1.73469 13.0811 0.494262C20.763 -1.56414 28.6589 2.99461 30.7174 10.6766C32.7758 18.3586 28.2171 26.2545 20.535 28.313C12.8531 30.3714 4.9572 25.8125 2.89869 18.1306L5.98977 17.3023C7.59055 23.277 13.732 26.8229 19.7067 25.2221C25.6814 23.6213 29.2273 17.4798 27.6264 11.5051C26.0255 5.53046 19.8842 1.98451 13.9095 3.5854C10.1316 4.59772 7.32466 7.42525 6.17651 10.8781L9.79818 12.9692L2.07116 15.04L0.000427246 7.31239L3.36012 9.25218Z" fill="white"/>
</svg>
