<svg width="56" height="56" viewBox="0 0 56 56" fill="none" xmlns="http://www.w3.org/2000/svg">
<circle cx="28" cy="28" r="28" fill="#E6E6E6"/>
<path d="M29.6036 27.4036H32.8039C33.6873 27.4036 34.4037 28.1138 34.4037 29.0036C34.4037 29.8874 33.6937 30.6038 32.8039 30.6038H28.0032C27.564 30.6038 27.166 30.4282 26.877 30.1421C26.5827 29.8465 26.4037 29.4502 26.4037 29.0185V22.5889C26.4037 21.7133 27.1139 21.0036 28.0037 21.0036C28.8873 21.0036 29.6036 21.7252 29.6036 22.5889L29.6036 27.4036ZM15.3601 22.2522C16.9562 18.0957 20.4515 14.7347 25.0811 13.4943C32.763 11.4359 40.6589 15.9946 42.7174 23.6766C44.7758 31.3586 40.2171 39.2545 32.535 41.313C24.8531 43.3714 16.9572 38.8125 14.8987 31.1306L17.9898 30.3023C19.5905 36.277 25.732 39.8229 31.7067 38.2221C37.6814 36.6213 41.2273 30.4798 39.6264 24.5051C38.0255 18.5305 31.8842 14.9845 25.9095 16.5854C22.1316 17.5977 19.3247 20.4252 18.1765 23.8781L21.7982 25.9692L14.0712 28.04L12.0004 20.3124L15.3601 22.2522Z" fill="#2CB3FF"/>
</svg>
