<svg width="20" height="29" viewBox="0 0 20 29" fill="none" xmlns="http://www.w3.org/2000/svg">
<path fill-rule="evenodd" clip-rule="evenodd" d="M9.04271 28.4908C9.13849 28.6462 9.27303 28.7747 9.43342 28.8638C9.59382 28.953 9.77467 28.9998 9.95861 28.9998C10.1426 28.9998 10.3234 28.953 10.4838 28.8638C10.6442 28.7747 10.7787 28.6462 10.8745 28.4908C14.2087 23.0858 20 13.8805 20 9.85643C20 4.4273 15.5271 3.05176e-05 9.95807 3.05176e-05C4.47294 3.05176e-05 0 4.4273 0 9.85643C0 13.8821 5.72047 23.0858 9.04271 28.4908ZM9.95807 5.65727C10.5163 5.65601 11.0692 5.76384 11.5852 5.9746C12.1012 6.18536 12.57 6.4949 12.9648 6.88544C13.3597 7.27598 13.6727 7.73985 13.8859 8.25042C14.0992 8.761 14.2085 9.30823 14.2076 9.86072C14.2076 12.2634 12.3141 14.1397 9.96024 14.1397C7.60637 14.1397 5.71289 12.2655 5.71289 9.86072C5.71204 9.30861 5.82125 8.76176 6.03427 8.2515C6.24728 7.74124 6.55992 7.27759 6.95428 6.88712C7.34863 6.49664 7.81694 6.18702 8.33238 5.97598C8.84782 5.76494 9.40027 5.65664 9.95807 5.65727Z" fill="white"/>
</svg>
