<svg width="56" height="56" viewBox="0 0 56 56" fill="none" xmlns="http://www.w3.org/2000/svg">
<circle cx="28" cy="28" r="28" fill="#E6E6E6"/>
<path fill-rule="evenodd" clip-rule="evenodd" d="M27.0427 40.4908C27.1385 40.6462 27.273 40.7747 27.4334 40.8638C27.5938 40.9529 27.7747 40.9997 27.9586 40.9997C28.1426 40.9997 28.3234 40.9529 28.4838 40.8638C28.6442 40.7747 28.7787 40.6462 28.8745 40.4908C32.2087 35.0857 38 25.8805 38 21.8564C38 16.4273 33.5271 12 27.9581 12C22.4729 12 18 16.4273 18 21.8564C18 25.8821 23.7205 35.0857 27.0427 40.4908ZM27.9581 17.6572C28.5163 17.656 29.0692 17.7638 29.5852 17.9746C30.1012 18.1853 30.57 18.4949 30.9648 18.8854C31.3597 19.276 31.6727 19.7398 31.8859 20.2504C32.0992 20.761 32.2085 21.3082 32.2076 21.8607C32.2076 24.2633 30.3141 26.1396 27.9602 26.1396C25.6064 26.1396 23.7129 24.2655 23.7129 21.8607C23.712 21.3086 23.8212 20.7617 24.0343 20.2515C24.2473 19.7412 24.5599 19.2776 24.9543 18.8871C25.3486 18.4966 25.8169 18.187 26.3324 17.976C26.8478 17.7649 27.4003 17.6566 27.9581 17.6572Z" fill="#2CB3FF"/>
</svg>
