<svg width="151" height="151" viewBox="0 0 151 151" fill="none" xmlns="http://www.w3.org/2000/svg">
<rect width="151" height="151" fill="#404040"/>
<g clip-path="url(#clip0_0_1)">
<rect x="-183" y="-280" width="360" height="800" rx="20" fill="white"/>
<path d="M-48.5 -43.5C-90.0145 8.53761 -151 -31.2999 -151 -114.159V-161C-151 -166.523 -146.506 -171 -140.983 -171H134C123 -159.466 113.009 -111.173 71 -102.5C28.9913 -93.8271 -3.19653 -100.287 -48.5 -43.5Z" fill="#55BCFF"/>
<g filter="url(#filter0_d_0_1)">
<g clip-path="url(#clip1_0_1)">
<g filter="url(#filter1_d_0_1)">
<rect x="3" y="3" width="143" height="143" rx="10" fill="url(#paint0_linear_0_1)" shape-rendering="crispEdges"/>
</g>
<circle cx="-29.5" cy="27.5" r="69.5" fill="white" fill-opacity="0.1"/>
<circle cx="-38" cy="31" r="126" fill="white" fill-opacity="0.1"/>
</g>
</g>
<path d="M83.9379 81.5427C73.0827 81.5427 64.2141 72.674 64.2141 61.8188C64.2141 50.9636 73.0827 42.0949 83.9379 42.0949C94.7932 42.0949 103.662 50.9636 103.662 61.8188C103.662 72.674 94.864 81.5427 83.9379 81.5427ZM83.9379 45.6424C74.9985 45.6424 67.7615 52.8793 67.7615 61.8188C67.7615 70.7583 74.9985 77.9952 83.9379 77.9952C92.8774 77.9952 100.114 70.7583 100.114 61.8188C100.114 52.8793 92.8774 45.6424 83.9379 45.6424Z" fill="white"/>
<path d="M101.604 50.396C101.036 50.396 100.54 50.1832 100.185 49.6863C98.695 47.6997 96.9212 45.9968 94.7931 44.6487C93.9419 44.1518 93.7291 43.0169 94.2255 42.1652C94.7224 41.3139 95.8572 41.1011 96.709 41.5975C99.1924 43.1584 101.32 45.145 103.023 47.4863C103.591 48.2668 103.449 49.4021 102.669 49.9698C102.385 50.3251 102.03 50.3959 101.604 50.3959L101.604 50.396Z" fill="white"/>
<path d="M66.2714 50.396C65.9166 50.396 65.5617 50.2539 65.2074 50.0411C64.4269 49.4735 64.2849 48.3382 64.8525 47.5576C66.8391 44.9327 69.2512 42.7334 72.1603 41.1011C73.0115 40.6043 74.0761 40.8883 74.5724 41.7396C75.0693 42.5908 74.7853 43.6553 73.934 44.1517C71.5219 45.5706 69.3933 47.4156 67.6904 49.6858C67.336 50.1831 66.7684 50.3959 66.2715 50.3959L66.2714 50.396Z" fill="white"/>
<path d="M87.0595 41.6692H80.887C79.4682 41.6692 78.3329 40.5339 78.3329 39.1151V37.5542C78.3329 36.1353 79.4682 35 80.887 35H87.0595C88.4783 35 89.6137 36.1353 89.6137 37.5542V39.1151C89.6137 40.5339 88.4076 41.6692 87.0595 41.6692Z" fill="white"/>
<path d="M94.0835 50.6088C93.3738 49.9704 92.2389 50.0412 91.6 50.7509L83.7953 59.2646L79.3966 54.8659C78.7582 54.1562 77.6229 54.1562 76.9131 54.8659C76.2034 55.5043 76.2034 56.6396 76.9131 57.3494L82.6599 63.0961C83.0147 63.451 83.5111 63.593 83.9367 63.593C84.3623 63.593 85.0008 63.3094 85.2849 63.0254C85.5685 62.7418 94.2244 53.0927 94.2244 53.0927C94.8633 52.3825 94.7925 51.2473 94.0833 50.6089L94.0835 50.6088Z" fill="white"/>
<path d="M62.0144 56.7105H44.7737C43.7805 56.7105 43 55.93 43 54.9367C43 53.9435 43.7805 53.163 44.7737 53.163H62.0144C63.0077 53.163 63.7881 53.9435 63.7881 54.9367C63.7881 55.93 63.0077 56.7105 62.0144 56.7105Z" fill="white"/>
<path d="M60.5955 65.2244H47.4699C46.4766 65.2244 45.6962 64.4439 45.6962 63.4506C45.6962 62.4574 46.4766 61.6769 47.4699 61.6769H60.5955C61.5888 61.6769 62.3692 62.4574 62.3692 63.4506C62.3692 64.4439 61.5888 65.2244 60.5955 65.2244Z" fill="white"/>
<path d="M62.7241 73.7383H52.6493C51.6561 73.7383 50.8756 72.9578 50.8756 71.9645C50.8756 70.9713 51.6561 70.1908 52.6493 70.1908H62.7241C63.7174 70.1908 64.4979 70.9713 64.4979 71.9645C64.4979 72.9578 63.7174 73.7383 62.7241 73.7383Z" fill="white"/>
<path d="M33.6641 112L32.5469 108.828H28.1797L27.0625 112H25.0859L29.3359 100.531H31.4141L35.6562 112H33.6641ZM32.0625 107.219L30.9766 104.094C30.9349 103.958 30.875 103.768 30.7969 103.523C30.7188 103.273 30.6406 103.021 30.5625 102.766C30.4844 102.505 30.4193 102.286 30.3672 102.109C30.3151 102.323 30.25 102.562 30.1719 102.828C30.099 103.089 30.026 103.333 29.9531 103.562C29.8854 103.792 29.8333 103.969 29.7969 104.094L28.7031 107.219H32.0625ZM38.8203 112H36.9766V99.8438H38.8203V112ZM44.8359 103.188C45.9297 103.188 46.7552 103.43 47.3125 103.914C47.875 104.398 48.1562 105.154 48.1562 106.18V112H46.8516L46.5 110.773H46.4375C46.1927 111.086 45.9401 111.344 45.6797 111.547C45.4193 111.75 45.1172 111.901 44.7734 112C44.4349 112.104 44.0208 112.156 43.5312 112.156C43.0156 112.156 42.5547 112.062 42.1484 111.875C41.7422 111.682 41.4219 111.391 41.1875 111C40.9531 110.609 40.8359 110.115 40.8359 109.516C40.8359 108.625 41.1667 107.956 41.8281 107.508C42.4948 107.06 43.5 106.812 44.8438 106.766L46.3438 106.711V106.258C46.3438 105.659 46.2031 105.232 45.9219 104.977C45.6458 104.721 45.2552 104.594 44.75 104.594C44.3177 104.594 43.8984 104.656 43.4922 104.781C43.0859 104.906 42.6901 105.06 42.3047 105.242L41.7109 103.945C42.1328 103.721 42.612 103.539 43.1484 103.398C43.6901 103.258 44.2526 103.188 44.8359 103.188ZM46.3359 107.867L45.2188 107.906C44.3021 107.938 43.6589 108.094 43.2891 108.375C42.9193 108.656 42.7344 109.042 42.7344 109.531C42.7344 109.958 42.862 110.271 43.1172 110.469C43.3724 110.661 43.7083 110.758 44.125 110.758C44.7604 110.758 45.2865 110.578 45.7031 110.219C46.125 109.854 46.3359 109.32 46.3359 108.617V107.867ZM55.1094 103.188C55.2552 103.188 55.4141 103.195 55.5859 103.211C55.7578 103.227 55.9062 103.247 56.0312 103.273L55.8594 104.992C55.75 104.961 55.6146 104.938 55.4531 104.922C55.2969 104.906 55.1562 104.898 55.0312 104.898C54.7031 104.898 54.3906 104.953 54.0938 105.062C53.7969 105.167 53.5339 105.328 53.3047 105.547C53.0755 105.76 52.8958 106.029 52.7656 106.352C52.6354 106.674 52.5703 107.049 52.5703 107.477V112H50.7266V103.352H52.1641L52.4141 104.875H52.5C52.6719 104.568 52.8854 104.286 53.1406 104.031C53.3958 103.776 53.6875 103.573 54.0156 103.422C54.349 103.266 54.7135 103.188 55.1094 103.188ZM67.4062 103.188C68.375 103.188 69.1042 103.438 69.5938 103.938C70.0885 104.438 70.3359 105.24 70.3359 106.344V112H68.5V106.672C68.5 106.016 68.3724 105.521 68.1172 105.188C67.862 104.854 67.474 104.688 66.9531 104.688C66.224 104.688 65.6979 104.922 65.375 105.391C65.0573 105.854 64.8984 106.529 64.8984 107.414V112H63.0625V106.672C63.0625 106.234 63.0052 105.87 62.8906 105.578C62.7812 105.281 62.612 105.06 62.3828 104.914C62.1536 104.763 61.8646 104.688 61.5156 104.688C61.0104 104.688 60.6068 104.802 60.3047 105.031C60.0078 105.26 59.7943 105.599 59.6641 106.047C59.5339 106.49 59.4688 107.034 59.4688 107.68V112H57.6328V103.352H59.0625L59.3203 104.516H59.4219C59.599 104.214 59.8177 103.966 60.0781 103.773C60.3438 103.576 60.638 103.43 60.9609 103.336C61.2839 103.237 61.6198 103.188 61.9688 103.188C62.6146 103.188 63.1589 103.302 63.6016 103.531C64.0443 103.755 64.375 104.099 64.5938 104.562H64.7344C65.0052 104.094 65.3828 103.747 65.8672 103.523C66.3516 103.299 66.8646 103.188 67.4062 103.188ZM83.8359 108.891C83.8359 109.568 83.6693 110.151 83.3359 110.641C83.0078 111.13 82.5339 111.505 81.9141 111.766C81.2995 112.026 80.5651 112.156 79.7109 112.156C79.2943 112.156 78.8958 112.133 78.5156 112.086C78.1354 112.039 77.776 111.971 77.4375 111.883C77.1042 111.789 76.7995 111.677 76.5234 111.547V109.781C76.987 109.984 77.5052 110.169 78.0781 110.336C78.651 110.497 79.2344 110.578 79.8281 110.578C80.3125 110.578 80.7135 110.516 81.0312 110.391C81.3542 110.26 81.5938 110.078 81.75 109.844C81.9062 109.604 81.9844 109.326 81.9844 109.008C81.9844 108.669 81.8932 108.383 81.7109 108.148C81.5286 107.914 81.2526 107.701 80.8828 107.508C80.5182 107.31 80.0599 107.099 79.5078 106.875C79.1328 106.724 78.7734 106.552 78.4297 106.359C78.0911 106.167 77.7891 105.94 77.5234 105.68C77.2578 105.419 77.0469 105.112 76.8906 104.758C76.7396 104.398 76.6641 103.977 76.6641 103.492C76.6641 102.846 76.8177 102.294 77.125 101.836C77.4375 101.378 77.875 101.026 78.4375 100.781C79.0052 100.536 79.6667 100.414 80.4219 100.414C81.0208 100.414 81.5833 100.477 82.1094 100.602C82.6406 100.727 83.1615 100.904 83.6719 101.133L83.0781 102.641C82.6094 102.448 82.1536 102.294 81.7109 102.18C81.2734 102.065 80.8255 102.008 80.3672 102.008C79.9714 102.008 79.6354 102.068 79.3594 102.188C79.0833 102.307 78.8724 102.477 78.7266 102.695C78.5859 102.909 78.5156 103.164 78.5156 103.461C78.5156 103.794 78.5964 104.076 78.7578 104.305C78.9245 104.529 79.1797 104.734 79.5234 104.922C79.8724 105.109 80.3203 105.318 80.8672 105.547C81.4974 105.807 82.0312 106.081 82.4688 106.367C82.9115 106.654 83.25 106.997 83.4844 107.398C83.7188 107.794 83.8359 108.292 83.8359 108.891ZM90.2891 103.188C91.3151 103.188 92.138 103.562 92.7578 104.312C93.3828 105.062 93.6953 106.177 93.6953 107.656C93.6953 108.635 93.5495 109.461 93.2578 110.133C92.9714 110.799 92.5677 111.305 92.0469 111.648C91.5312 111.987 90.9297 112.156 90.2422 112.156C89.8047 112.156 89.4245 112.099 89.1016 111.984C88.7786 111.87 88.5026 111.721 88.2734 111.539C88.0443 111.352 87.8516 111.148 87.6953 110.93H87.5859C87.612 111.138 87.6354 111.37 87.6562 111.625C87.6823 111.875 87.6953 112.104 87.6953 112.312V115.836H85.8516V103.352H87.3516L87.6094 104.547H87.6953C87.8568 104.302 88.0521 104.076 88.2812 103.867C88.5156 103.659 88.7969 103.495 89.125 103.375C89.4583 103.25 89.8464 103.188 90.2891 103.188ZM89.7969 104.688C89.2917 104.688 88.8854 104.789 88.5781 104.992C88.276 105.19 88.0547 105.49 87.9141 105.891C87.7786 106.292 87.7057 106.794 87.6953 107.398V107.656C87.6953 108.297 87.7604 108.841 87.8906 109.289C88.026 109.732 88.2474 110.07 88.5547 110.305C88.8672 110.534 89.2891 110.648 89.8203 110.648C90.2682 110.648 90.638 110.526 90.9297 110.281C91.2266 110.036 91.4479 109.688 91.5938 109.234C91.7396 108.781 91.8125 108.247 91.8125 107.633C91.8125 106.701 91.6458 105.977 91.3125 105.461C90.9844 104.945 90.4792 104.688 89.7969 104.688ZM99.2656 103.188C100.036 103.188 100.698 103.346 101.25 103.664C101.802 103.982 102.227 104.432 102.523 105.016C102.82 105.599 102.969 106.297 102.969 107.109V108.094H97.1953C97.2161 108.932 97.4401 109.578 97.8672 110.031C98.2995 110.484 98.9036 110.711 99.6797 110.711C100.232 110.711 100.727 110.659 101.164 110.555C101.607 110.445 102.062 110.286 102.531 110.078V111.57C102.099 111.773 101.659 111.922 101.211 112.016C100.763 112.109 100.227 112.156 99.6016 112.156C98.7526 112.156 98.0052 111.992 97.3594 111.664C96.7188 111.331 96.2161 110.836 95.8516 110.18C95.4922 109.523 95.3125 108.708 95.3125 107.734C95.3125 106.766 95.4766 105.943 95.8047 105.266C96.1328 104.589 96.5938 104.073 97.1875 103.719C97.7812 103.365 98.474 103.188 99.2656 103.188ZM99.2656 104.57C98.6875 104.57 98.2188 104.758 97.8594 105.133C97.5052 105.508 97.2969 106.057 97.2344 106.781H101.172C101.167 106.349 101.094 105.966 100.953 105.633C100.818 105.299 100.609 105.039 100.328 104.852C100.052 104.664 99.6979 104.57 99.2656 104.57ZM108.484 103.188C109.255 103.188 109.917 103.346 110.469 103.664C111.021 103.982 111.445 104.432 111.742 105.016C112.039 105.599 112.188 106.297 112.188 107.109V108.094H106.414C106.435 108.932 106.659 109.578 107.086 110.031C107.518 110.484 108.122 110.711 108.898 110.711C109.451 110.711 109.945 110.659 110.383 110.555C110.826 110.445 111.281 110.286 111.75 110.078V111.57C111.318 111.773 110.878 111.922 110.43 112.016C109.982 112.109 109.445 112.156 108.82 112.156C107.971 112.156 107.224 111.992 106.578 111.664C105.938 111.331 105.435 110.836 105.07 110.18C104.711 109.523 104.531 108.708 104.531 107.734C104.531 106.766 104.695 105.943 105.023 105.266C105.352 104.589 105.812 104.073 106.406 103.719C107 103.365 107.693 103.188 108.484 103.188ZM108.484 104.57C107.906 104.57 107.438 104.758 107.078 105.133C106.724 105.508 106.516 106.057 106.453 106.781H110.391C110.385 106.349 110.312 105.966 110.172 105.633C110.036 105.299 109.828 105.039 109.547 104.852C109.271 104.664 108.917 104.57 108.484 104.57ZM117.164 112.156C116.133 112.156 115.305 111.781 114.68 111.031C114.06 110.276 113.75 109.164 113.75 107.695C113.75 106.211 114.065 105.089 114.695 104.328C115.331 103.568 116.167 103.188 117.203 103.188C117.641 103.188 118.023 103.247 118.352 103.367C118.68 103.482 118.961 103.638 119.195 103.836C119.435 104.034 119.638 104.255 119.805 104.5H119.891C119.865 104.339 119.833 104.107 119.797 103.805C119.766 103.497 119.75 103.214 119.75 102.953V99.8438H121.594V112H120.156L119.828 110.82H119.75C119.594 111.07 119.396 111.297 119.156 111.5C118.922 111.698 118.641 111.857 118.312 111.977C117.99 112.096 117.607 112.156 117.164 112.156ZM117.68 110.664C118.466 110.664 119.021 110.438 119.344 109.984C119.667 109.531 119.833 108.852 119.844 107.945V107.703C119.844 106.734 119.688 105.992 119.375 105.477C119.062 104.956 118.492 104.695 117.664 104.695C117.003 104.695 116.497 104.964 116.148 105.5C115.805 106.031 115.633 106.773 115.633 107.727C115.633 108.68 115.805 109.409 116.148 109.914C116.497 110.414 117.008 110.664 117.68 110.664Z" fill="white"/>
<g style="mix-blend-mode:multiply" opacity="0.99" filter="url(#filter2_f_0_1)">
<circle cx="75.4997" cy="-66.5211" r="33.9133" fill="#0066C5"/>
</g>
</g>
<rect x="-262" y="-379" width="2498" height="998" stroke="white" stroke-width="2" stroke-dasharray="30 10"/>
<defs>
<filter id="filter0_d_0_1" x="0" y="0" width="151" height="151" filterUnits="userSpaceOnUse" color-interpolation-filters="sRGB">
<feFlood flood-opacity="0" result="BackgroundImageFix"/>
<feColorMatrix in="SourceAlpha" type="matrix" values="0 0 0 0 0 0 0 0 0 0 0 0 0 0 0 0 0 0 127 0" result="hardAlpha"/>
<feOffset dx="1" dy="1"/>
<feGaussianBlur stdDeviation="2"/>
<feComposite in2="hardAlpha" operator="out"/>
<feColorMatrix type="matrix" values="0 0 0 0 0 0 0 0 0 0 0 0 0 0 0 0 0 0 0.25 0"/>
<feBlend mode="normal" in2="BackgroundImageFix" result="effect1_dropShadow_0_1"/>
<feBlend mode="normal" in="SourceGraphic" in2="effect1_dropShadow_0_1" result="shape"/>
</filter>
<filter id="filter1_d_0_1" x="0" y="0" width="151" height="151" filterUnits="userSpaceOnUse" color-interpolation-filters="sRGB">
<feFlood flood-opacity="0" result="BackgroundImageFix"/>
<feColorMatrix in="SourceAlpha" type="matrix" values="0 0 0 0 0 0 0 0 0 0 0 0 0 0 0 0 0 0 127 0" result="hardAlpha"/>
<feOffset dx="1" dy="1"/>
<feGaussianBlur stdDeviation="2"/>
<feComposite in2="hardAlpha" operator="out"/>
<feColorMatrix type="matrix" values="0 0 0 0 0 0 0 0 0 0 0 0 0 0 0 0 0 0 0.25 0"/>
<feBlend mode="normal" in2="BackgroundImageFix" result="effect1_dropShadow_0_1"/>
<feBlend mode="normal" in="SourceGraphic" in2="effect1_dropShadow_0_1" result="shape"/>
</filter>
<filter id="filter2_f_0_1" x="1.1059" y="-140.915" width="148.788" height="148.788" filterUnits="userSpaceOnUse" color-interpolation-filters="sRGB">
<feFlood flood-opacity="0" result="BackgroundImageFix"/>
<feBlend mode="normal" in="SourceGraphic" in2="BackgroundImageFix" result="shape"/>
<feGaussianBlur stdDeviation="20.2403" result="effect1_foregroundBlur_0_1"/>
</filter>
<linearGradient id="paint0_linear_0_1" x1="74.5" y1="3" x2="74.5" y2="146" gradientUnits="userSpaceOnUse">
<stop stop-color="#7F6AFF"/>
<stop offset="1" stop-color="#0085FF" stop-opacity="0.6"/>
</linearGradient>
<clipPath id="clip0_0_1">
<rect x="-183" y="-280" width="360" height="800" rx="20" fill="white"/>
</clipPath>
<clipPath id="clip1_0_1">
<rect x="3" y="3" width="143" height="143" rx="10" fill="white"/>
</clipPath>
</defs>
</svg>
