<svg width="150" height="151" viewBox="0 0 150 151" fill="none" xmlns="http://www.w3.org/2000/svg">
<rect width="150" height="151" fill="#404040"/>
<g clip-path="url(#clip0_0_1)">
<rect x="-28" y="-280" width="360" height="800" rx="20" fill="white"/>
<path d="M106.5 -43.5C64.9855 8.53761 4 -31.2999 4 -114.159V-161C4 -166.523 8.49421 -171 14.0171 -171H289C278 -159.466 268.009 -111.173 226 -102.5C183.991 -93.8271 151.803 -100.287 106.5 -43.5Z" fill="#55BCFF"/>
<g filter="url(#filter0_d_0_1)">
<g clip-path="url(#clip1_0_1)">
<g filter="url(#filter1_d_0_1)">
<rect x="3" y="3" width="142" height="143" rx="10" fill="url(#paint0_linear_0_1)"/>
</g>
<circle cx="125.5" cy="27.5" r="69.5" fill="white" fill-opacity="0.1"/>
<circle cx="117" cy="31" r="126" fill="white" fill-opacity="0.1"/>
<path d="M64.4215 59.8409H60.4593V39.8324C60.4593 38.7922 59.6174 38 58.6269 38C57.6364 38 56.7945 38.8419 56.7945 39.8324V59.8409H52.8324C51.7922 59.8409 51 60.6828 51 61.6733V68.9536C51 69.9938 51.8419 70.7859 52.8324 70.7859H56.7945L56.7942 76.4816C56.7942 77.5218 57.6361 78.314 58.6266 78.314C59.617 78.314 60.4589 77.4721 60.4589 76.4816L60.4593 70.7863H64.4215C65.4617 70.7863 66.2538 69.9444 66.2538 68.9539V61.6736C66.2538 60.6828 65.4613 59.8409 64.4215 59.8409ZM62.5394 67.0719H54.6648V63.506H62.5892V67.0719H62.5394Z" fill="white"/>
<path d="M80.2697 45.5279H76.3075V39.8326C76.3075 38.7923 75.4656 38.0002 74.4752 38.0002C73.4847 38.0002 72.6428 38.8421 72.6428 39.8326V45.5279H68.6806C67.6404 45.5279 66.8483 46.3698 66.8483 47.3602V54.6406C66.8483 55.6808 67.6902 56.4729 68.6806 56.4729H72.6428V76.4814C72.6428 77.5217 73.4847 78.3138 74.4752 78.3138C75.4656 78.3138 76.3075 77.4719 76.3075 76.4814V56.4729H80.2697C81.3099 56.4729 82.1021 55.631 82.1021 54.6406V47.3602C82.1518 46.32 81.3099 45.5275 80.2697 45.5275V45.5279ZM78.4373 52.7588H70.513V49.2423H78.4373V52.7588Z" fill="white"/>
<path d="M96.1676 59.8409H92.2054V39.8324C92.2054 38.7922 91.3635 38 90.3731 38C89.3328 38 88.5407 38.8419 88.5407 39.8324V59.8409H84.5785C83.5383 59.8409 82.7462 60.6828 82.7462 61.6733V68.9536C82.7462 69.9938 83.5881 70.7859 84.5785 70.7859H88.5407L88.5403 76.4816C88.5403 77.5218 89.3822 78.314 90.3727 78.314C91.4129 78.314 92.2051 77.4721 92.2051 76.4816L92.2054 70.7863H96.1676C97.2078 70.7863 98 69.9444 98 68.9539V61.6736C98 60.6828 97.1581 59.8409 96.1676 59.8409ZM94.2855 67.0719H86.3612V63.506H94.2855V67.0719Z" fill="white"/>
</g>
</g>
<path d="M28.1328 111H26.2734V99.5781H32.7266V101.156H28.1328V104.719H32.4297V106.289H28.1328V111ZM38.0625 102.188C38.8333 102.188 39.4948 102.346 40.0469 102.664C40.599 102.982 41.0234 103.432 41.3203 104.016C41.6172 104.599 41.7656 105.297 41.7656 106.109V107.094H35.9922C36.013 107.932 36.237 108.578 36.6641 109.031C37.0964 109.484 37.7005 109.711 38.4766 109.711C39.0286 109.711 39.5234 109.659 39.9609 109.555C40.4036 109.445 40.8594 109.286 41.3281 109.078V110.57C40.8958 110.773 40.4557 110.922 40.0078 111.016C39.5599 111.109 39.0234 111.156 38.3984 111.156C37.5495 111.156 36.8021 110.992 36.1562 110.664C35.5156 110.331 35.013 109.836 34.6484 109.18C34.2891 108.523 34.1094 107.708 34.1094 106.734C34.1094 105.766 34.2734 104.943 34.6016 104.266C34.9297 103.589 35.3906 103.073 35.9844 102.719C36.5781 102.365 37.2708 102.188 38.0625 102.188ZM38.0625 103.57C37.4844 103.57 37.0156 103.758 36.6562 104.133C36.3021 104.508 36.0938 105.057 36.0312 105.781H39.9688C39.9635 105.349 39.8906 104.966 39.75 104.633C39.6146 104.299 39.4062 104.039 39.125 103.852C38.849 103.664 38.4948 103.57 38.0625 103.57ZM48.3438 102.188C49.3177 102.188 50.0755 102.44 50.6172 102.945C51.1641 103.445 51.4375 104.25 51.4375 105.359V111H49.6016V105.703C49.6016 105.031 49.4635 104.529 49.1875 104.195C48.9115 103.857 48.4844 103.688 47.9062 103.688C47.0677 103.688 46.4844 103.945 46.1562 104.461C45.8333 104.977 45.6719 105.724 45.6719 106.703V111H43.8359V102.352H45.2656L45.5234 103.523H45.625C45.8125 103.221 46.0443 102.974 46.3203 102.781C46.6016 102.583 46.9141 102.435 47.2578 102.336C47.6068 102.237 47.9688 102.188 48.3438 102.188ZM57.4922 111.156C56.6745 111.156 55.9661 110.997 55.3672 110.68C54.7682 110.362 54.3073 109.875 53.9844 109.219C53.6615 108.562 53.5 107.729 53.5 106.719C53.5 105.667 53.6771 104.807 54.0312 104.141C54.3854 103.474 54.875 102.982 55.5 102.664C56.1302 102.346 56.8516 102.188 57.6641 102.188C58.1797 102.188 58.6458 102.24 59.0625 102.344C59.4844 102.443 59.8411 102.565 60.1328 102.711L59.5859 104.18C59.2682 104.049 58.9427 103.94 58.6094 103.852C58.276 103.763 57.9557 103.719 57.6484 103.719C57.1432 103.719 56.7214 103.831 56.3828 104.055C56.0495 104.279 55.7995 104.612 55.6328 105.055C55.4714 105.497 55.3906 106.047 55.3906 106.703C55.3906 107.339 55.474 107.875 55.6406 108.312C55.8073 108.745 56.0547 109.073 56.3828 109.297C56.7109 109.516 57.1146 109.625 57.5938 109.625C58.0677 109.625 58.4922 109.568 58.8672 109.453C59.2422 109.339 59.5964 109.19 59.9297 109.008V110.602C59.6016 110.789 59.25 110.927 58.875 111.016C58.5 111.109 58.0391 111.156 57.4922 111.156ZM65.4062 102.188C66.1771 102.188 66.8385 102.346 67.3906 102.664C67.9427 102.982 68.3672 103.432 68.6641 104.016C68.9609 104.599 69.1094 105.297 69.1094 106.109V107.094H63.3359C63.3568 107.932 63.5807 108.578 64.0078 109.031C64.4401 109.484 65.0443 109.711 65.8203 109.711C66.3724 109.711 66.8672 109.659 67.3047 109.555C67.7474 109.445 68.2031 109.286 68.6719 109.078V110.57C68.2396 110.773 67.7995 110.922 67.3516 111.016C66.9036 111.109 66.3672 111.156 65.7422 111.156C64.8932 111.156 64.1458 110.992 63.5 110.664C62.8594 110.331 62.3568 109.836 61.9922 109.18C61.6328 108.523 61.4531 107.708 61.4531 106.734C61.4531 105.766 61.6172 104.943 61.9453 104.266C62.2734 103.589 62.7344 103.073 63.3281 102.719C63.9219 102.365 64.6146 102.188 65.4062 102.188ZM65.4062 103.57C64.8281 103.57 64.3594 103.758 64 104.133C63.6458 104.508 63.4375 105.057 63.375 105.781H67.3125C67.3073 105.349 67.2344 104.966 67.0938 104.633C66.9583 104.299 66.75 104.039 66.4688 103.852C66.1927 103.664 65.8385 103.57 65.4062 103.57ZM80.3906 101.008C79.8438 101.008 79.3542 101.107 78.9219 101.305C78.4948 101.503 78.1328 101.789 77.8359 102.164C77.5391 102.534 77.3125 102.984 77.1562 103.516C77 104.042 76.9219 104.635 76.9219 105.297C76.9219 106.182 77.0469 106.945 77.2969 107.586C77.5469 108.221 77.9271 108.711 78.4375 109.055C78.9479 109.393 79.5938 109.562 80.375 109.562C80.8594 109.562 81.3307 109.516 81.7891 109.422C82.2474 109.328 82.7214 109.201 83.2109 109.039V110.633C82.7474 110.815 82.2786 110.948 81.8047 111.031C81.3307 111.115 80.7839 111.156 80.1641 111.156C78.9974 111.156 78.0286 110.914 77.2578 110.43C76.4922 109.945 75.9193 109.263 75.5391 108.383C75.1641 107.503 74.9766 106.471 74.9766 105.289C74.9766 104.424 75.0964 103.633 75.3359 102.914C75.5755 102.195 75.9245 101.576 76.3828 101.055C76.8411 100.529 77.4062 100.125 78.0781 99.8438C78.7552 99.5573 79.5286 99.4141 80.3984 99.4141C80.9714 99.4141 81.5339 99.4792 82.0859 99.6094C82.6432 99.7344 83.1589 99.9141 83.6328 100.148L82.9766 101.695C82.5807 101.508 82.1667 101.346 81.7344 101.211C81.3021 101.076 80.8542 101.008 80.3906 101.008ZM93.1328 106.656C93.1328 107.375 93.0391 108.013 92.8516 108.57C92.6641 109.128 92.3906 109.599 92.0312 109.984C91.6719 110.365 91.2396 110.656 90.7344 110.859C90.2292 111.057 89.6589 111.156 89.0234 111.156C88.4297 111.156 87.8854 111.057 87.3906 110.859C86.8958 110.656 86.4661 110.365 86.1016 109.984C85.7422 109.599 85.4635 109.128 85.2656 108.57C85.0677 108.013 84.9688 107.375 84.9688 106.656C84.9688 105.703 85.1328 104.896 85.4609 104.234C85.7943 103.568 86.2682 103.06 86.8828 102.711C87.4974 102.362 88.2292 102.188 89.0781 102.188C89.875 102.188 90.5781 102.362 91.1875 102.711C91.7969 103.06 92.2734 103.568 92.6172 104.234C92.9609 104.901 93.1328 105.708 93.1328 106.656ZM86.8594 106.656C86.8594 107.286 86.9349 107.826 87.0859 108.273C87.2422 108.721 87.4818 109.065 87.8047 109.305C88.1276 109.539 88.5443 109.656 89.0547 109.656C89.5651 109.656 89.9818 109.539 90.3047 109.305C90.6276 109.065 90.8646 108.721 91.0156 108.273C91.1667 107.826 91.2422 107.286 91.2422 106.656C91.2422 106.026 91.1667 105.492 91.0156 105.055C90.8646 104.612 90.6276 104.276 90.3047 104.047C89.9818 103.812 89.5625 103.695 89.0469 103.695C88.2865 103.695 87.7318 103.951 87.3828 104.461C87.0339 104.971 86.8594 105.703 86.8594 106.656ZM99.75 102.188C100.724 102.188 101.482 102.44 102.023 102.945C102.57 103.445 102.844 104.25 102.844 105.359V111H101.008V105.703C101.008 105.031 100.87 104.529 100.594 104.195C100.318 103.857 99.8906 103.688 99.3125 103.688C98.474 103.688 97.8906 103.945 97.5625 104.461C97.2396 104.977 97.0781 105.724 97.0781 106.703V111H95.2422V102.352H96.6719L96.9297 103.523H97.0312C97.2188 103.221 97.4505 102.974 97.7266 102.781C98.0078 102.583 98.3203 102.435 98.6641 102.336C99.013 102.237 99.375 102.188 99.75 102.188ZM109.734 103.75H107.633V111H105.797V103.75H104.383V102.867L105.797 102.328V101.727C105.797 100.992 105.911 100.409 106.141 99.9766C106.375 99.5443 106.708 99.2344 107.141 99.0469C107.578 98.8542 108.099 98.7578 108.703 98.7578C109.099 98.7578 109.461 98.7917 109.789 98.8594C110.117 98.9219 110.393 98.9948 110.617 99.0781L110.141 100.469C109.964 100.411 109.766 100.359 109.547 100.312C109.328 100.26 109.094 100.234 108.844 100.234C108.427 100.234 108.12 100.365 107.922 100.625C107.729 100.885 107.633 101.266 107.633 101.766V102.352H109.734V103.75ZM113.039 102.352V111H111.203V102.352H113.039ZM112.133 99.0391C112.414 99.0391 112.656 99.1146 112.859 99.2656C113.068 99.4167 113.172 99.6771 113.172 100.047C113.172 100.411 113.068 100.672 112.859 100.828C112.656 100.979 112.414 101.055 112.133 101.055C111.841 101.055 111.594 100.979 111.391 100.828C111.193 100.672 111.094 100.411 111.094 100.047C111.094 99.6771 111.193 99.4167 111.391 99.2656C111.594 99.1146 111.841 99.0391 112.133 99.0391ZM118.133 114.844C116.961 114.844 116.062 114.633 115.438 114.211C114.812 113.789 114.5 113.198 114.5 112.438C114.5 111.906 114.667 111.456 115 111.086C115.333 110.721 115.81 110.469 116.43 110.328C116.195 110.224 115.992 110.062 115.82 109.844C115.654 109.62 115.57 109.372 115.57 109.102C115.57 108.779 115.661 108.503 115.844 108.273C116.026 108.044 116.299 107.823 116.664 107.609C116.211 107.417 115.846 107.104 115.57 106.672C115.299 106.234 115.164 105.721 115.164 105.133C115.164 104.508 115.297 103.977 115.562 103.539C115.828 103.096 116.216 102.76 116.727 102.531C117.237 102.297 117.854 102.18 118.578 102.18C118.734 102.18 118.904 102.19 119.086 102.211C119.273 102.227 119.445 102.247 119.602 102.273C119.763 102.294 119.885 102.318 119.969 102.344H122.961V103.367L121.492 103.641C121.633 103.839 121.745 104.065 121.828 104.32C121.911 104.57 121.953 104.844 121.953 105.141C121.953 106.036 121.643 106.742 121.023 107.258C120.409 107.768 119.56 108.023 118.477 108.023C118.216 108.013 117.964 107.992 117.719 107.961C117.531 108.076 117.388 108.203 117.289 108.344C117.19 108.479 117.141 108.633 117.141 108.805C117.141 108.945 117.19 109.06 117.289 109.148C117.388 109.232 117.534 109.294 117.727 109.336C117.924 109.378 118.164 109.398 118.445 109.398H119.938C120.885 109.398 121.609 109.599 122.109 110C122.609 110.401 122.859 110.99 122.859 111.766C122.859 112.75 122.453 113.508 121.641 114.039C120.828 114.576 119.659 114.844 118.133 114.844ZM118.203 113.555C118.844 113.555 119.383 113.492 119.82 113.367C120.258 113.242 120.589 113.062 120.812 112.828C121.036 112.599 121.148 112.326 121.148 112.008C121.148 111.727 121.078 111.51 120.938 111.359C120.797 111.208 120.586 111.104 120.305 111.047C120.023 110.99 119.674 110.961 119.258 110.961H117.898C117.56 110.961 117.26 111.013 117 111.117C116.74 111.227 116.536 111.383 116.391 111.586C116.25 111.789 116.18 112.034 116.18 112.32C116.18 112.716 116.354 113.021 116.703 113.234C117.057 113.448 117.557 113.555 118.203 113.555ZM118.562 106.82C119.099 106.82 119.497 106.674 119.758 106.383C120.018 106.086 120.148 105.669 120.148 105.133C120.148 104.549 120.013 104.112 119.742 103.82C119.477 103.529 119.081 103.383 118.555 103.383C118.039 103.383 117.646 103.531 117.375 103.828C117.109 104.125 116.977 104.565 116.977 105.148C116.977 105.674 117.109 106.086 117.375 106.383C117.646 106.674 118.042 106.82 118.562 106.82Z" fill="white"/>
</g>
<rect x="-107" y="-379" width="2498" height="998" stroke="white" stroke-width="2" stroke-dasharray="30 10"/>
<defs>
<filter id="filter0_d_0_1" x="0" y="0" width="150" height="151" filterUnits="userSpaceOnUse" color-interpolation-filters="sRGB">
<feFlood flood-opacity="0" result="BackgroundImageFix"/>
<feColorMatrix in="SourceAlpha" type="matrix" values="0 0 0 0 0 0 0 0 0 0 0 0 0 0 0 0 0 0 127 0" result="hardAlpha"/>
<feOffset dx="1" dy="1"/>
<feGaussianBlur stdDeviation="2"/>
<feComposite in2="hardAlpha" operator="out"/>
<feColorMatrix type="matrix" values="0 0 0 0 0 0 0 0 0 0 0 0 0 0 0 0 0 0 0.25 0"/>
<feBlend mode="normal" in2="BackgroundImageFix" result="effect1_dropShadow_0_1"/>
<feBlend mode="normal" in="SourceGraphic" in2="effect1_dropShadow_0_1" result="shape"/>
</filter>
<filter id="filter1_d_0_1" x="0" y="0" width="150" height="151" filterUnits="userSpaceOnUse" color-interpolation-filters="sRGB">
<feFlood flood-opacity="0" result="BackgroundImageFix"/>
<feColorMatrix in="SourceAlpha" type="matrix" values="0 0 0 0 0 0 0 0 0 0 0 0 0 0 0 0 0 0 127 0" result="hardAlpha"/>
<feOffset dx="1" dy="1"/>
<feGaussianBlur stdDeviation="2"/>
<feComposite in2="hardAlpha" operator="out"/>
<feColorMatrix type="matrix" values="0 0 0 0 0 0 0 0 0 0 0 0 0 0 0 0 0 0 0.25 0"/>
<feBlend mode="normal" in2="BackgroundImageFix" result="effect1_dropShadow_0_1"/>
<feBlend mode="normal" in="SourceGraphic" in2="effect1_dropShadow_0_1" result="shape"/>
</filter>
<linearGradient id="paint0_linear_0_1" x1="74" y1="3" x2="74" y2="146" gradientUnits="userSpaceOnUse">
<stop stop-color="#3A28F0"/>
<stop offset="1" stop-color="#1EDFCE"/>
</linearGradient>
<clipPath id="clip0_0_1">
<rect x="-28" y="-280" width="360" height="800" rx="20" fill="white"/>
</clipPath>
<clipPath id="clip1_0_1">
<rect x="3" y="3" width="142" height="143" rx="10" fill="white"/>
</clipPath>
</defs>
</svg>
