<svg width="114" height="146" viewBox="0 0 114 146" fill="none" xmlns="http://www.w3.org/2000/svg">
<path d="M57.0029 145.406C79.6807 145.406 98.0647 142.595 98.0647 139.126C98.0647 135.658 79.6807 132.846 57.0029 132.846C34.3251 132.846 15.9412 135.658 15.9412 139.126C15.9412 142.595 34.3251 145.406 57.0029 145.406Z" fill="url(#paint0_radial_615_4362)"/>
<path d="M56.7613 113.523H56.5198C45.3141 113.475 34.3732 110.112 25.0759 103.856C15.7785 97.6011 8.54076 88.7337 4.27457 78.3718C0.00837 68.0098 -1.09534 56.617 1.10252 45.6288C3.30039 34.6407 8.70147 24.5489 16.6252 16.6252C24.5489 8.70147 34.6407 3.30039 45.6288 1.10252C56.617 -1.09534 68.0098 0.00837 78.3718 4.27457C88.7337 8.54076 97.6011 15.7785 103.856 25.0759C110.112 34.3732 113.475 45.3141 113.523 56.5198V113.523H56.7613Z" fill="url(#paint1_linear_615_4362)"/>
<path d="M46.8583 85.0216V67.1476H28.9844V46.8583H46.8583V28.9844H67.1476V46.8583H85.0216V67.1476H67.1476V85.0216H46.8583Z" fill="white"/>
<defs>
<radialGradient id="paint0_radial_615_4362" cx="0" cy="0" r="1" gradientUnits="userSpaceOnUse" gradientTransform="translate(57.0029 139.126) scale(41.0617 6.28003)">
<stop stop-opacity="0.18"/>
<stop offset="1" stop-color="#808080" stop-opacity="0"/>
</radialGradient>
<linearGradient id="paint1_linear_615_4362" x1="113.523" y1="0" x2="0" y2="113.523" gradientUnits="userSpaceOnUse">
<stop stop-color="#C6181E"/>
<stop offset="1" stop-color="#FD2F37"/>
</linearGradient>
</defs>
</svg>
