<svg width="16" height="17" viewBox="0 0 16 17" fill="none" xmlns="http://www.w3.org/2000/svg">
<path d="M8.0007 0C3.58924 0 0 3.58924 0 8.0007C0 12.4122 3.58924 16.0014 8.0007 16.0014C12.4122 16.0014 16 12.4122 16 8.0007C16 3.58924 12.4118 0 8.0007 0ZM8.0007 1.23088C8.55115 1.23088 9.08268 1.30355 9.59466 1.42677C9.44313 1.46936 9.28748 1.50686 9.13185 1.53132C8.57261 1.61924 8.09988 1.61319 8.09562 1.61305C8.0676 1.61086 7.74394 1.58544 7.34556 1.59987C7.13799 1.60742 6.91475 1.62377 6.69165 1.67199C6.46855 1.72021 6.22279 1.76238 5.98361 2.04948C5.62135 2.48426 5.45623 2.83032 5.3201 2.91729C5.20759 2.98927 5.14632 2.99408 4.89218 3.01702C4.6471 3.03927 4.26587 3.07884 3.81874 3.26704C3.76751 3.27968 3.47943 3.27212 3.18643 3.23696C4.41263 1.9981 6.11486 1.23087 8.00056 1.23087L8.0007 1.23088ZM11.1825 2.02423C11.3049 2.08935 11.4218 2.16229 11.5395 2.23455L10.5538 3.21665C10.4736 3.29674 10.417 3.39744 10.3904 3.50761L10.1175 4.65676C9.90212 4.67173 9.78975 4.67022 9.43119 4.71569C9.13075 4.75374 8.81494 4.80347 8.52727 4.8756C8.24908 4.94525 8.00098 4.98948 7.72308 5.26972C7.39352 5.54585 7.08401 5.93668 6.75062 6.35156C6.40333 6.78388 6.10634 7.17857 6.10634 7.17857C5.96485 7.36389 5.94012 7.61335 6.04274 7.82285L6.77838 9.31819L7.03678 11.2258C7.07992 11.5619 7.38681 11.8 7.72312 11.7582L8.61867 11.6489V12.1717C8.6195 12.3005 8.66071 12.4257 8.73654 12.5299L9.73183 13.9027C9.96056 14.2159 10.4186 14.242 10.6815 13.9568L12.7752 11.6898C12.8475 11.6103 12.8976 11.5133 12.9207 11.4085L13.1022 10.5995L14.2465 9.29539C14.3964 9.12683 14.442 8.88972 14.3655 8.67763L13.8752 7.32887C14.0211 7.17707 14.2928 6.89036 14.624 6.60159C14.7184 7.05301 14.7695 7.52078 14.7695 8.00075C14.7695 11.7468 11.747 14.7692 8.00109 14.7692C6.57953 14.7692 5.26267 14.3325 4.17517 13.5876C4.17572 13.3229 4.19646 13.1983 4.19316 13.1885C4.88952 12.9654 5.21124 12.3387 5.21124 12.3387C5.28336 12.1842 5.28817 12.0065 5.22443 11.8483C5.22443 11.8483 5.1339 11.6219 5.04296 11.3627C4.99748 11.2331 4.95064 11.0929 4.92028 10.9852C4.88992 10.8775 4.88429 10.7702 4.88429 10.8493C4.88429 10.5769 4.80543 10.4537 4.73881 10.3131C4.67218 10.1729 4.59608 10.0429 4.52121 9.9226C4.37147 9.68191 4.22558 9.48148 4.22558 9.48148C4.13367 9.35812 3.99905 9.27378 3.84809 9.24465C3.84809 9.24465 3.59669 9.18943 3.39846 9.10398C3.34255 9.07994 3.3339 9.07389 3.30354 9.05466C3.42058 8.42533 3.42141 7.70481 3.42141 7.70481C3.41742 7.63145 3.40025 7.55933 3.37099 7.49202C3.37099 7.49202 3.22194 7.12469 2.98991 6.78275C2.87383 6.61199 2.76214 6.42861 2.47175 6.27802C2.32668 6.20274 2.09095 6.14353 1.85877 6.21909C1.62661 6.29478 1.47273 6.46815 1.38632 6.6194C1.38262 6.62586 1.37011 6.64234 1.36586 6.64949C1.53592 5.80532 1.86629 5.02118 2.31785 4.32359C2.44698 4.35628 2.5915 4.39131 2.76747 4.42456C3.19293 4.50492 3.67867 4.6063 4.21115 4.43417C4.50445 4.33183 4.77781 4.28031 5.00697 4.24308C5.25589 4.22056 5.62459 4.18703 5.98425 3.95693C6.52865 3.60869 6.71645 3.14202 6.88817 2.9027C6.90273 2.89446 6.91619 2.88471 6.95548 2.87619C7.06209 2.85311 7.22776 2.83649 7.39178 2.83058C7.71983 2.81863 8.02769 2.83896 8.02769 2.83896L8.04568 2.84377H8.06491C8.06491 2.84377 8.64107 2.85586 9.32217 2.74885C9.9196 2.65502 10.6345 2.50129 11.1829 2.02407L11.1825 2.02423ZM12.5335 2.97746C13.2571 3.63053 13.8422 4.43348 14.2297 5.34429C13.4194 5.95217 12.6982 6.74222 12.6982 6.74222C12.5434 6.91201 12.4961 7.15407 12.5757 7.36962L13.0841 8.75435L12.0756 9.90473C12.0079 9.98235 11.9608 10.0758 11.9385 10.1765L11.7571 10.9757L10.2858 12.5709L9.84948 11.9662L9.84467 10.9445C9.84083 10.5776 9.51896 10.2954 9.15464 10.34L8.17268 10.4589L7.98627 9.05495C7.97679 8.9901 7.95687 8.92719 7.92747 8.86867L7.31917 7.62337C7.43388 7.47473 7.50449 7.38489 7.71467 7.12332C8.04986 6.70612 8.50911 6.20153 8.53204 6.18328C8.55457 6.16514 8.57586 6.1455 8.59578 6.12434C8.4808 6.24647 8.61955 6.12215 8.82657 6.07022C9.0336 6.01829 9.31453 5.97241 9.58627 5.93806C10.1297 5.8691 10.6405 5.84314 10.6405 5.84314C10.9125 5.82954 11.1433 5.63886 11.2079 5.37428L11.548 3.96193L12.5335 2.97746ZM2.10378 7.71458C2.13469 7.77557 2.16491 7.83093 2.18071 7.86486C2.17961 7.99963 2.18154 8.68308 2.10378 8.93583C1.99567 9.2871 2.16272 9.6822 2.349 9.87218C2.53528 10.0622 2.72814 10.1576 2.90799 10.2351C3.12806 10.33 3.20637 10.335 3.3395 10.3673C3.38634 10.4342 3.40736 10.4625 3.47536 10.5717C3.53512 10.6677 3.59612 10.7722 3.63046 10.8445C3.66481 10.9168 3.65327 10.9871 3.65327 10.8493C3.65327 11.0632 3.69324 11.1734 3.735 11.3218C3.77677 11.4701 3.82979 11.6221 3.88048 11.7665C3.91964 11.8781 3.92431 11.8876 3.95741 11.9757C3.92802 12.0085 3.88886 12.0478 3.88886 12.0478C3.58595 12.1029 3.22753 12.3462 3.07863 12.644C2.10314 11.6102 1.44965 10.272 1.27916 8.78081C1.37862 8.66376 1.44236 8.59205 1.6314 8.35893C1.8001 8.15095 1.94351 7.93389 2.10385 7.71466L2.10378 7.71458Z" fill="#3F3F3F"/>
</svg>
