<svg width="31" height="23" viewBox="0 0 31 23" fill="none" xmlns="http://www.w3.org/2000/svg">
<path d="M4.71985 13.4241C2.11578 13.4241 -3.8147e-06 15.5401 -3.8147e-06 18.1439C-3.8147e-06 20.748 2.11607 22.8638 4.71985 22.8638C6.99193 22.8638 8.94393 21.2399 9.35993 19.0116C11.3759 19.0077 13.392 19.0035 15.4079 19.0035C15.7079 19.0035 15.9718 18.8515 16.1278 18.6196L21.6278 10.4475L22.9718 14.0915C21.5476 14.9475 20.6719 16.4715 20.6719 18.1395C20.6719 20.7475 22.7879 22.8593 25.3917 22.8593C27.9997 22.8593 30.1116 20.7475 30.1116 18.1395C30.1116 15.5354 27.9997 13.4196 25.3917 13.4196C25.1236 13.4196 24.8596 13.4436 24.6038 13.4877L19.8437 0.571985C19.7156 0.219863 19.3797 0.00390571 19.0237 0.00390571L14.8759 0C13.728 0 13.728 1.74386 14.8759 1.74386H18.4199L20.62 7.71179L11.98 7.71569L11.0799 5.27569C10.9518 4.92357 10.6158 4.70371 10.2637 4.70371L6.87557 4.6998C5.72771 4.6998 5.72771 6.44787 6.87557 6.44787H9.65571L10.3156 8.24394L6.25166 13.6759C5.77175 13.5118 5.25559 13.4239 4.71959 13.4239L4.71985 13.4241ZM9.35993 17.272C9.15987 16.2081 8.59986 15.2441 7.77207 14.5441L11.036 10.1841L13.6479 17.2681L9.35993 17.272ZM15.3039 16.7321L12.62 9.4521L20.2043 9.44819L15.3039 16.7321ZM25.3917 15.1682C27.0357 15.1682 28.3677 16.5002 28.3677 18.1402C28.3677 19.7842 27.0357 21.1162 25.3917 21.1162C23.7477 21.1162 22.4157 19.7881 22.4157 18.1402C22.4157 16.4962 23.7477 15.1682 25.3917 15.1682ZM4.71957 15.1682C6.35964 15.1682 7.69557 16.5002 7.69557 18.1442C7.69557 19.7882 6.36357 21.1202 4.71957 21.1202C3.07171 21.1202 1.74357 19.7882 1.74357 18.1442C1.74357 16.4963 3.07171 15.1682 4.71957 15.1682Z" fill="#7E7E7E"/>
</svg>
