<svg width="45" height="32" viewBox="0 0 45 32" fill="none" xmlns="http://www.w3.org/2000/svg">
<path d="M1.22345 13.4713L1.22658 13.4713L18.4003 13.4713C18.9526 13.4713 19.4003 13.0236 19.4003 12.4713V1.24731V1.24427L1.22345 13.4713ZM1.22345 13.4713C1.17047 13.4711 1.11552 13.4924 1.07213 13.5366L1.07164 13.5371C1.02758 13.5819 0.99995 13.646 1.0001 13.7168V13.7189L1.0001 26.1899L1.00009 26.1919C0.99995 26.2627 1.02776 26.3268 1.07111 26.3708L1.07212 26.3718C1.11486 26.4153 1.17018 26.4372 1.2248 26.4371H1.22689H6.30683C6.76557 26.4371 7.16547 26.7492 7.27689 27.1942C7.56533 28.3463 8.34297 29.3005 9.38975 29.8021L9.39003 29.8022C10.4356 30.3036 11.6453 30.3036 12.6908 29.8022L12.691 29.8022C13.7375 29.3006 14.5152 28.3463 14.8036 27.1943C14.915 26.7493 15.3149 26.4371 15.7736 26.4371H28.3873C28.8461 26.4371 29.246 26.7493 29.3574 27.1943C29.6458 28.3463 30.4235 29.3006 31.47 29.8022L31.4702 29.8022C32.5157 30.3036 33.7254 30.3036 34.771 29.8022L34.7712 29.8021C35.818 29.3005 36.5957 28.3462 36.8841 27.1943C36.9955 26.7493 37.3954 26.4371 37.8541 26.4371L42.9341 26.4371L42.9362 26.4371C42.9908 26.4372 43.0461 26.4153 43.0889 26.3718L43.0899 26.3708C43.1332 26.3268 43.161 26.2627 43.1609 26.1919V26.1899L43.1609 13.7189L43.1609 13.7168C43.161 13.646 43.1334 13.5818 43.0894 13.5371L43.0889 13.5366C43.0461 13.493 42.9911 13.4714 42.9372 13.4716H42.9341H37.5739C37.1856 13.4716 36.8324 13.2468 36.668 12.895L31.1749 1.14207L31.1668 1.12416C31.1298 1.04088 31.0547 0.99926 30.9847 1.00001L30.9847 1.00007H30.9739L19.6271 1.00007L19.625 1.00007M1.22345 13.4713L19.625 1.00007M18.4003 1.24731V11.4713V12.4713H17.4003H1.22658L18.4003 1.24731ZM18.4003 1.24731C18.3993 0.916436 18.5285 0.598504 18.7585 0.364639C18.9889 0.130443 19.3013 -0.000611564 19.6271 6.81506e-05L18.4003 1.24731ZM19.625 1.00007C19.5703 0.999952 19.5149 1.02169 19.4715 1.06586L19.625 1.00007ZM43.8023 27.0725C43.5723 27.3067 43.2595 27.4378 42.9341 27.4371H37.8541C37.4946 28.8736 36.5226 30.0718 35.2033 30.7039C33.8845 31.3364 32.3567 31.3364 31.0378 30.7039C29.7189 30.0718 28.7469 28.8736 28.3873 27.4371H15.7736C15.414 28.8736 14.4421 30.0718 13.1232 30.7039C11.8043 31.3364 10.2765 31.3364 8.95763 30.7039C7.6384 30.0718 6.66649 28.8736 6.30683 27.4371H1.22689C0.901443 27.4378 0.588722 27.3067 0.358692 27.0725C0.128334 26.8387 -0.000572205 26.5208 9.53674e-05 26.1899V13.7189L43.8023 27.0725ZM43.8023 27.0725C44.0326 26.8387 44.1616 26.5208 44.1609 26.1899V13.7189L43.8023 27.0725ZM33.12 29.6834L33.1158 29.6834C32.1967 29.6795 31.3199 29.3062 30.6754 28.6511C30.0314 27.9964 29.6705 27.1127 29.6668 26.1933V26.1893C29.6668 25.2684 30.026 24.3812 30.6724 23.7244C31.3186 23.0674 32.1985 22.6952 33.12 22.6952C34.0412 22.6952 34.9213 23.0674 35.5676 23.7244C36.2133 24.3809 36.5732 25.268 36.5732 26.1893C36.5732 27.1106 36.2133 27.9976 35.5676 28.6541C34.9214 29.3112 34.0411 29.6834 33.12 29.6834ZM11.04 29.6834L11.0358 29.6834C10.1165 29.6795 9.24025 29.3062 8.59566 28.6513L8.59543 28.6511C7.95144 27.9964 7.59053 27.1127 7.58679 26.1933V26.1893C7.58679 25.2679 7.94667 24.3809 8.59238 23.7244C9.23865 23.0674 10.1189 22.6952 11.04 22.6952C11.9612 22.6952 12.8414 23.0674 13.4876 23.7244C14.1333 24.3809 14.4932 25.268 14.4932 26.1893C14.4932 27.1106 14.1333 27.9976 13.4876 28.6541C12.8414 29.3112 11.9611 29.6834 11.04 29.6834Z" stroke="#7E7E7E" stroke-width="2" stroke-linejoin="round"/>
</svg>
