<svg width="14" height="18" viewBox="0 0 14 18" fill="none" xmlns="http://www.w3.org/2000/svg">
<path d="M5.2648 1.25C5.23731 1.25 5.21013 1.25149 5.18334 1.2544C4.89216 1.27589 4.60898 1.41272 4.40917 1.65595C4.40913 1.656 4.40909 1.65605 4.40905 1.6561L1.53718 5.15163C1.35956 5.3479 1.25 5.61016 1.25 5.89691V14.2568C1.25 15.6295 2.36406 16.75 3.73797 16.75H10.3731C11.7471 16.75 12.8611 15.6293 12.8611 14.2568V3.74321C12.8611 2.37052 11.7471 1.25 10.3731 1.25H5.2648Z" fill="#D9D9D9" stroke="#3F3F3F" stroke-width="1.5" stroke-linejoin="round"/>
<rect x="4.05566" y="11.8334" width="6" height="2.11111" rx="0.5" stroke="#3F3F3F"/>
<path d="M10.5557 3.55554V6.66665" stroke="#3F3F3F" stroke-linecap="round"/>
<path d="M9 3.55554V6.66665" stroke="#3F3F3F" stroke-linecap="round"/>
<path d="M7.44434 3.55554V6.66665" stroke="#3F3F3F" stroke-linecap="round"/>
<path d="M5.88892 3.55554V6.66665" stroke="#3F3F3F" stroke-linecap="round"/>
</svg>
