<svg width="37" height="18" viewBox="0 0 37 18" fill="none" xmlns="http://www.w3.org/2000/svg">
<path d="M29.721 12.156C28.8652 11.3046 27.4647 11.3002 26.609 12.156C25.7759 12.9891 25.7488 14.3629 26.5593 15.2231C27.4783 16.0832 28.7977 16.1913 29.721 15.2727C30.5859 14.4169 30.5768 13.0118 29.721 12.156L29.721 12.156ZM10.35 12.156C9.49416 11.3002 8.08898 11.3002 7.23318 12.156C6.40007 12.9935 6.3683 14.3629 7.18355 15.2231C8.09773 16.088 9.43101 16.1869 10.3496 15.2727C11.2145 14.4214 11.2054 13.0118 10.3496 12.156L10.35 12.156ZM12.8406 12.7324H21.7219C22.267 12.7324 22.7036 13.1738 22.7036 13.7142C22.7036 14.2545 22.2666 14.6959 21.7219 14.6959H12.8406C12.3901 16.5561 10.7147 17.8802 8.79173 17.8802C6.86404 17.8802 5.19772 16.5561 4.74284 14.6959H3.5943L3.17082 14.6689C1.49984 14.4707 0 13.0972 0 11.3495L0.0226194 11.0027C0.10807 10.5657 0.252272 10.1334 0.342435 9.70112C0.734191 8.17869 1.27013 7.23306 2.13502 6.57559C2.96813 5.94507 4.00867 5.66582 5.45438 5.44055L10.7869 4.60744L13.3677 2.08541C14.3813 1.07664 15.471 0 17.115 0H25.2805C28.0413 0 29.1987 0.19823 30.9103 2.41836L33.2118 5.39093L35.4052 5.97181C35.8601 6.05727 36.2022 6.45813 36.2022 6.93562V13.7139C36.2022 14.2542 35.7608 14.6956 35.2205 14.6956H32.2121C31.7616 16.5558 30.0862 17.8799 28.1676 17.8799C25.8661 17.8799 23.9972 16.011 23.9972 13.7139C23.9972 11.4124 25.8618 9.54781 28.1676 9.54781C30.0906 9.54781 31.7616 10.8673 32.2165 12.7321H34.2388V7.69242L32.3922 7.20138C32.1669 7.14295 31.9734 7.00315 31.8471 6.82314L29.3612 3.61179C28.0553 1.91845 27.4335 1.96341 25.2809 1.96341H17.1154C16.2731 1.96341 15.4806 2.74692 14.7419 3.47668L11.9362 6.22398C11.7697 6.38608 11.5623 6.47624 11.3506 6.49855L5.75233 7.37221C4.61287 7.55222 3.82463 7.74605 3.3157 8.1287C2.8429 8.48904 2.51868 9.11518 2.24823 10.1823C2.17158 10.493 1.93281 11.2542 1.97805 11.5288C2.09052 12.1772 2.78415 12.6503 3.40116 12.7223L4.74329 12.7267C5.19818 10.8621 6.86923 9.54712 8.79218 9.54712C10.7199 9.54712 12.3905 10.8666 12.8411 12.7314L12.8406 12.7324Z" fill="black"/>
</svg>
