<svg width="305" height="182" viewBox="0 0 305 182" fill="none" xmlns="http://www.w3.org/2000/svg">
<g filter="url(#filter0_d_143_76)">
<rect x="3" y="3" width="297" height="162" rx="10" fill="#32AEFF"/>
</g>
<path d="M105.5 130.5C63.9855 182.538 3 142.7 3 59.8407V12.9999C3 7.47708 7.49421 2.99992 13.0171 2.99992H288C277 14.5339 267.009 62.8271 225 71.5C182.991 80.1729 150.803 73.7129 105.5 130.5Z" fill="#55BCFF"/>
<path d="M127.379 82.0365C85.8642 122.642 3 112.008 3 47.353V13C3 7.47715 7.49421 3 13.0171 3H288C277 12 265.76 22.4566 223.751 29.2241C181.743 35.9917 172.682 37.7254 127.379 82.0365Z" fill="#48B2FF"/>
<path d="M78.5 49.7152C53.3 73.7152 3 67.4304 3 29.2152V13C3 7.47713 7.52094 2.99998 13.0438 2.99998H176C176 11.5 162.5 14.5 137 18.5C111.5 22.5 106 23.5247 78.5 49.7152Z" fill="#32A9FF"/>
<path d="M29.8027 98H28.8008V90.3125H26.1055V89.4336H32.4863V90.3125H29.8027V98ZM36.0371 91.4727C36.8027 91.4727 37.3711 91.6445 37.7422 91.9883C38.1133 92.332 38.2988 92.8809 38.2988 93.6348V98H37.5898L37.4023 97.0508H37.3555C37.1758 97.2852 36.9883 97.4824 36.793 97.6426C36.5977 97.7988 36.3711 97.918 36.1133 98C35.8594 98.0781 35.5469 98.1172 35.1758 98.1172C34.7852 98.1172 34.4375 98.0488 34.1328 97.9121C33.832 97.7754 33.5938 97.5684 33.418 97.291C33.2461 97.0137 33.1602 96.6621 33.1602 96.2363C33.1602 95.5957 33.4141 95.1035 33.9219 94.7598C34.4297 94.416 35.2031 94.2285 36.2422 94.1973L37.3496 94.1504V93.7578C37.3496 93.2031 37.2305 92.8145 36.9922 92.5918C36.7539 92.3691 36.418 92.2578 35.9844 92.2578C35.6484 92.2578 35.3281 92.3066 35.0234 92.4043C34.7188 92.502 34.4297 92.6172 34.1562 92.75L33.8574 92.0117C34.1465 91.8633 34.4785 91.7363 34.8535 91.6309C35.2285 91.5254 35.623 91.4727 36.0371 91.4727ZM37.3379 94.8359L36.3594 94.877C35.5586 94.9082 34.9941 95.0391 34.666 95.2695C34.3379 95.5 34.1738 95.8262 34.1738 96.248C34.1738 96.6152 34.2852 96.8867 34.5078 97.0625C34.7305 97.2383 35.0254 97.3262 35.3926 97.3262C35.9629 97.3262 36.4297 97.168 36.793 96.8516C37.1562 96.5352 37.3379 96.0605 37.3379 95.4277V94.8359ZM43.3203 91.4609C44.1211 91.4609 44.7598 91.7363 45.2363 92.2871C45.7129 92.8379 45.9512 93.666 45.9512 94.7715C45.9512 95.502 45.8418 96.1152 45.623 96.6113C45.4043 97.1074 45.0957 97.4824 44.6973 97.7363C44.3027 97.9902 43.8359 98.1172 43.2969 98.1172C42.957 98.1172 42.6582 98.0723 42.4004 97.9824C42.1426 97.8926 41.9219 97.7715 41.7383 97.6191C41.5547 97.4668 41.4023 97.3008 41.2812 97.1211H41.2109C41.2227 97.2734 41.2363 97.457 41.252 97.6719C41.2715 97.8867 41.2812 98.0742 41.2812 98.2344V100.871H40.3027V91.5781H41.1055L41.2344 92.5273H41.2812C41.4062 92.332 41.5586 92.1543 41.7383 91.9941C41.918 91.8301 42.1367 91.7012 42.3945 91.6074C42.6562 91.5098 42.9648 91.4609 43.3203 91.4609ZM43.1504 92.2812C42.7051 92.2812 42.3457 92.3672 42.0723 92.5391C41.8027 92.7109 41.6055 92.9688 41.4805 93.3125C41.3555 93.6523 41.2891 94.0801 41.2812 94.5957V94.7832C41.2812 95.3262 41.3398 95.7852 41.457 96.1602C41.5781 96.5352 41.7754 96.8203 42.0488 97.0156C42.3262 97.2109 42.6973 97.3086 43.1621 97.3086C43.5605 97.3086 43.8926 97.2012 44.1582 96.9863C44.4238 96.7715 44.6211 96.4727 44.75 96.0898C44.8828 95.7031 44.9492 95.2598 44.9492 94.7598C44.9492 94.002 44.8008 93.4004 44.5039 92.9551C44.2109 92.5059 43.7598 92.2812 43.1504 92.2812ZM51.7402 88.8828V91.6074C51.7402 91.7637 51.7363 91.9219 51.7285 92.082C51.7207 92.2383 51.707 92.3828 51.6875 92.5156H51.752C51.8848 92.2891 52.0527 92.0996 52.2559 91.9473C52.4629 91.791 52.6973 91.6738 52.959 91.5957C53.2207 91.5137 53.498 91.4727 53.791 91.4727C54.3066 91.4727 54.7363 91.5547 55.0801 91.7188C55.4277 91.8828 55.6875 92.1367 55.8594 92.4805C56.0352 92.8242 56.123 93.2695 56.123 93.8164V98H55.1621V93.8809C55.1621 93.3457 55.0391 92.9453 54.793 92.6797C54.5508 92.4141 54.1777 92.2812 53.6738 92.2812C53.1973 92.2812 52.8164 92.373 52.5312 92.5566C52.25 92.7363 52.0469 93.002 51.9219 93.3535C51.8008 93.7051 51.7402 94.1348 51.7402 94.6426V98H50.7676V88.8828H51.7402ZM60.5996 91.4609C61.1465 91.4609 61.6152 91.582 62.0059 91.8242C62.3965 92.0664 62.6953 92.4062 62.9023 92.8438C63.1094 93.2773 63.2129 93.7852 63.2129 94.3672V94.9707H58.7773C58.7891 95.7246 58.9766 96.2988 59.3398 96.6934C59.7031 97.0879 60.2148 97.2852 60.875 97.2852C61.2812 97.2852 61.6406 97.248 61.9531 97.1738C62.2656 97.0996 62.5898 96.9902 62.9258 96.8457V97.7012C62.6016 97.8457 62.2793 97.9512 61.959 98.0176C61.6426 98.084 61.2676 98.1172 60.834 98.1172C60.2168 98.1172 59.6777 97.9922 59.2168 97.7422C58.7598 97.4883 58.4043 97.1172 58.1504 96.6289C57.8965 96.1406 57.7695 95.543 57.7695 94.8359C57.7695 94.1445 57.8848 93.5469 58.1152 93.043C58.3496 92.5352 58.6777 92.1445 59.0996 91.8711C59.5254 91.5977 60.0254 91.4609 60.5996 91.4609ZM60.5879 92.2578C60.0684 92.2578 59.6543 92.4277 59.3457 92.7676C59.0371 93.1074 58.8535 93.582 58.7949 94.1914H62.1934C62.1895 93.8086 62.1289 93.4727 62.0117 93.1836C61.8984 92.8906 61.7246 92.6641 61.4902 92.5039C61.2559 92.3398 60.9551 92.2578 60.5879 92.2578ZM67.7832 91.4609C67.9121 91.4609 68.0469 91.4688 68.1875 91.4844C68.3281 91.4961 68.4531 91.5137 68.5625 91.5371L68.4395 92.4395C68.334 92.4121 68.2168 92.3906 68.0879 92.375C67.959 92.3594 67.8379 92.3516 67.7246 92.3516C67.4668 92.3516 67.2227 92.4043 66.9922 92.5098C66.7656 92.6113 66.5664 92.7598 66.3945 92.9551C66.2227 93.1465 66.0879 93.3789 65.9902 93.6523C65.8926 93.9219 65.8438 94.2227 65.8438 94.5547V98H64.8652V91.5781H65.6738L65.7793 92.7617H65.8203C65.9531 92.5234 66.1133 92.3066 66.3008 92.1113C66.4883 91.9121 66.7051 91.7539 66.9512 91.6367C67.2012 91.5195 67.4785 91.4609 67.7832 91.4609ZM72.248 91.4609C72.7949 91.4609 73.2637 91.582 73.6543 91.8242C74.0449 92.0664 74.3438 92.4062 74.5508 92.8438C74.7578 93.2773 74.8613 93.7852 74.8613 94.3672V94.9707H70.4258C70.4375 95.7246 70.625 96.2988 70.9883 96.6934C71.3516 97.0879 71.8633 97.2852 72.5234 97.2852C72.9297 97.2852 73.2891 97.248 73.6016 97.1738C73.9141 97.0996 74.2383 96.9902 74.5742 96.8457V97.7012C74.25 97.8457 73.9277 97.9512 73.6074 98.0176C73.291 98.084 72.916 98.1172 72.4824 98.1172C71.8652 98.1172 71.3262 97.9922 70.8652 97.7422C70.4082 97.4883 70.0527 97.1172 69.7988 96.6289C69.5449 96.1406 69.418 95.543 69.418 94.8359C69.418 94.1445 69.5332 93.5469 69.7637 93.043C69.998 92.5352 70.3262 92.1445 70.748 91.8711C71.1738 91.5977 71.6738 91.4609 72.248 91.4609ZM72.2363 92.2578C71.7168 92.2578 71.3027 92.4277 70.9941 92.7676C70.6855 93.1074 70.502 93.582 70.4434 94.1914H73.8418C73.8379 93.8086 73.7773 93.4727 73.6602 93.1836C73.5469 92.8906 73.373 92.6641 73.1387 92.5039C72.9043 92.3398 72.6035 92.2578 72.2363 92.2578ZM81.7051 97.3203C81.8652 97.3203 82.0293 97.3066 82.1973 97.2793C82.3652 97.252 82.502 97.2188 82.6074 97.1797V97.9355C82.4941 97.9863 82.3359 98.0293 82.1328 98.0645C81.9336 98.0996 81.7383 98.1172 81.5469 98.1172C81.207 98.1172 80.8984 98.0586 80.6211 97.9414C80.3438 97.8203 80.1211 97.6172 79.9531 97.332C79.7891 97.0469 79.707 96.6523 79.707 96.1484V92.3398H78.793V91.8652L79.7129 91.4844L80.0996 90.0898H80.6855V91.5781H82.5664V92.3398H80.6855V96.1191C80.6855 96.5215 80.7773 96.8223 80.9609 97.0215C81.1484 97.2207 81.3965 97.3203 81.7051 97.3203ZM89.4453 94.7773C89.4453 95.3047 89.377 95.7754 89.2402 96.1895C89.1035 96.6035 88.9062 96.9531 88.6484 97.2383C88.3906 97.5234 88.0781 97.7422 87.7109 97.8945C87.3477 98.043 86.9355 98.1172 86.4746 98.1172C86.0449 98.1172 85.6504 98.043 85.291 97.8945C84.9355 97.7422 84.627 97.5234 84.3652 97.2383C84.1074 96.9531 83.9062 96.6035 83.7617 96.1895C83.6211 95.7754 83.5508 95.3047 83.5508 94.7773C83.5508 94.0742 83.6699 93.4766 83.9082 92.9844C84.1465 92.4883 84.4863 92.1113 84.9277 91.8535C85.373 91.5918 85.9023 91.4609 86.5156 91.4609C87.1016 91.4609 87.6133 91.5918 88.0508 91.8535C88.4922 92.1152 88.834 92.4941 89.0762 92.9902C89.3223 93.4824 89.4453 94.0781 89.4453 94.7773ZM84.5586 94.7773C84.5586 95.293 84.627 95.7402 84.7637 96.1191C84.9004 96.498 85.1113 96.791 85.3965 96.998C85.6816 97.2051 86.0488 97.3086 86.498 97.3086C86.9434 97.3086 87.3086 97.2051 87.5938 96.998C87.8828 96.791 88.0957 96.498 88.2324 96.1191C88.3691 95.7402 88.4375 95.293 88.4375 94.7773C88.4375 94.2656 88.3691 93.8242 88.2324 93.4531C88.0957 93.0781 87.8848 92.7891 87.5996 92.5859C87.3145 92.3828 86.9453 92.2812 86.4922 92.2812C85.8242 92.2812 85.334 92.502 85.0215 92.9434C84.7129 93.3848 84.5586 93.9961 84.5586 94.7773ZM95.2227 98H94.2441V88.8828H95.2227V98ZM102.816 94.7773C102.816 95.3047 102.748 95.7754 102.611 96.1895C102.475 96.6035 102.277 96.9531 102.02 97.2383C101.762 97.5234 101.449 97.7422 101.082 97.8945C100.719 98.043 100.307 98.1172 99.8457 98.1172C99.416 98.1172 99.0215 98.043 98.6621 97.8945C98.3066 97.7422 97.998 97.5234 97.7363 97.2383C97.4785 96.9531 97.2773 96.6035 97.1328 96.1895C96.9922 95.7754 96.9219 95.3047 96.9219 94.7773C96.9219 94.0742 97.041 93.4766 97.2793 92.9844C97.5176 92.4883 97.8574 92.1113 98.2988 91.8535C98.7441 91.5918 99.2734 91.4609 99.8867 91.4609C100.473 91.4609 100.984 91.5918 101.422 91.8535C101.863 92.1152 102.205 92.4941 102.447 92.9902C102.693 93.4824 102.816 94.0781 102.816 94.7773ZM97.9297 94.7773C97.9297 95.293 97.998 95.7402 98.1348 96.1191C98.2715 96.498 98.4824 96.791 98.7676 96.998C99.0527 97.2051 99.4199 97.3086 99.8691 97.3086C100.314 97.3086 100.68 97.2051 100.965 96.998C101.254 96.791 101.467 96.498 101.604 96.1191C101.74 95.7402 101.809 95.293 101.809 94.7773C101.809 94.2656 101.74 93.8242 101.604 93.4531C101.467 93.0781 101.256 92.7891 100.971 92.5859C100.686 92.3828 100.316 92.2812 99.8633 92.2812C99.1953 92.2812 98.7051 92.502 98.3926 92.9434C98.084 93.3848 97.9297 93.9961 97.9297 94.7773ZM107.07 98.1172C106.492 98.1172 105.982 97.998 105.541 97.7598C105.1 97.5215 104.756 97.1582 104.51 96.6699C104.264 96.1816 104.141 95.5664 104.141 94.8242C104.141 94.0469 104.27 93.4121 104.527 92.9199C104.789 92.4238 105.148 92.0566 105.605 91.8184C106.062 91.5801 106.582 91.4609 107.164 91.4609C107.484 91.4609 107.793 91.4941 108.09 91.5605C108.391 91.623 108.637 91.7031 108.828 91.8008L108.535 92.6152C108.34 92.5371 108.113 92.4668 107.855 92.4043C107.602 92.3418 107.363 92.3105 107.141 92.3105C106.695 92.3105 106.324 92.4062 106.027 92.5977C105.734 92.7891 105.514 93.0703 105.365 93.4414C105.221 93.8125 105.148 94.2695 105.148 94.8125C105.148 95.332 105.219 95.7754 105.359 96.1426C105.504 96.5098 105.717 96.791 105.998 96.9863C106.283 97.1777 106.639 97.2734 107.064 97.2734C107.404 97.2734 107.711 97.2383 107.984 97.168C108.258 97.0938 108.506 97.0078 108.729 96.9102V97.7773C108.514 97.8867 108.273 97.9707 108.008 98.0293C107.746 98.0879 107.434 98.1172 107.07 98.1172ZM111.219 88.8828V93.6172C111.219 93.7734 111.213 93.9648 111.201 94.1914C111.189 94.4141 111.18 94.6113 111.172 94.7832H111.213C111.295 94.6816 111.414 94.5312 111.57 94.332C111.73 94.1328 111.865 93.9727 111.975 93.8516L114.107 91.5781H115.25L112.666 94.3203L115.438 98H114.266L111.998 94.959L111.219 95.6738V98H110.252V88.8828H111.219ZM26.0117 107.578H27.0547L28.4727 111.305C28.5547 111.523 28.6309 111.734 28.7012 111.938C28.7715 112.137 28.834 112.328 28.8887 112.512C28.9434 112.695 28.9863 112.873 29.0176 113.045H29.0586C29.1133 112.85 29.1914 112.594 29.293 112.277C29.3945 111.957 29.5039 111.631 29.6211 111.299L30.9629 107.578H32.0117L29.2168 114.943C29.0684 115.338 28.8945 115.682 28.6953 115.975C28.5 116.268 28.2617 116.492 27.9805 116.648C27.6992 116.809 27.3594 116.889 26.9609 116.889C26.7773 116.889 26.6152 116.877 26.4746 116.854C26.334 116.834 26.2129 116.811 26.1113 116.783V116.004C26.1973 116.023 26.3008 116.041 26.4219 116.057C26.5469 116.072 26.6758 116.08 26.8086 116.08C27.0508 116.08 27.2598 116.033 27.4355 115.939C27.6152 115.85 27.7695 115.717 27.8984 115.541C28.0273 115.365 28.1387 115.156 28.2324 114.914L28.584 114.012L26.0117 107.578ZM38.5742 110.777C38.5742 111.305 38.5059 111.775 38.3691 112.189C38.2324 112.604 38.0352 112.953 37.7773 113.238C37.5195 113.523 37.207 113.742 36.8398 113.895C36.4766 114.043 36.0645 114.117 35.6035 114.117C35.1738 114.117 34.7793 114.043 34.4199 113.895C34.0645 113.742 33.7559 113.523 33.4941 113.238C33.2363 112.953 33.0352 112.604 32.8906 112.189C32.75 111.775 32.6797 111.305 32.6797 110.777C32.6797 110.074 32.7988 109.477 33.0371 108.984C33.2754 108.488 33.6152 108.111 34.0566 107.854C34.502 107.592 35.0312 107.461 35.6445 107.461C36.2305 107.461 36.7422 107.592 37.1797 107.854C37.6211 108.115 37.9629 108.494 38.2051 108.99C38.4512 109.482 38.5742 110.078 38.5742 110.777ZM33.6875 110.777C33.6875 111.293 33.7559 111.74 33.8926 112.119C34.0293 112.498 34.2402 112.791 34.5254 112.998C34.8105 113.205 35.1777 113.309 35.627 113.309C36.0723 113.309 36.4375 113.205 36.7227 112.998C37.0117 112.791 37.2246 112.498 37.3613 112.119C37.498 111.74 37.5664 111.293 37.5664 110.777C37.5664 110.266 37.498 109.824 37.3613 109.453C37.2246 109.078 37.0137 108.789 36.7285 108.586C36.4434 108.383 36.0742 108.281 35.6211 108.281C34.9531 108.281 34.4629 108.502 34.1504 108.943C33.8418 109.385 33.6875 109.996 33.6875 110.777ZM45.5586 107.578V114H44.7617L44.6211 113.098H44.5684C44.4355 113.32 44.2637 113.508 44.0527 113.66C43.8418 113.812 43.6035 113.926 43.3379 114C43.0762 114.078 42.7969 114.117 42.5 114.117C41.9922 114.117 41.5664 114.035 41.2227 113.871C40.8789 113.707 40.6191 113.453 40.4434 113.109C40.2715 112.766 40.1855 112.324 40.1855 111.785V107.578H41.1699V111.715C41.1699 112.25 41.291 112.65 41.5332 112.916C41.7754 113.178 42.1445 113.309 42.6406 113.309C43.1172 113.309 43.4961 113.219 43.7773 113.039C44.0625 112.859 44.2676 112.596 44.3926 112.248C44.5176 111.896 44.5801 111.467 44.5801 110.959V107.578H45.5586ZM50.5332 107.461C50.6621 107.461 50.7969 107.469 50.9375 107.484C51.0781 107.496 51.2031 107.514 51.3125 107.537L51.1895 108.439C51.084 108.412 50.9668 108.391 50.8379 108.375C50.709 108.359 50.5879 108.352 50.4746 108.352C50.2168 108.352 49.9727 108.404 49.7422 108.51C49.5156 108.611 49.3164 108.76 49.1445 108.955C48.9727 109.146 48.8379 109.379 48.7402 109.652C48.6426 109.922 48.5938 110.223 48.5938 110.555V114H47.6152V107.578H48.4238L48.5293 108.762H48.5703C48.7031 108.523 48.8633 108.307 49.0508 108.111C49.2383 107.912 49.4551 107.754 49.7012 107.637C49.9512 107.52 50.2285 107.461 50.5332 107.461ZM57.0547 114L54.6172 107.578H55.6602L57.0723 111.463C57.1699 111.729 57.2695 112.021 57.3711 112.342C57.4727 112.662 57.543 112.92 57.582 113.115H57.623C57.6699 112.92 57.748 112.662 57.8574 112.342C57.9668 112.018 58.0664 111.725 58.1562 111.463L59.5684 107.578H60.6113L58.168 114H57.0547ZM64.1152 107.461C64.6621 107.461 65.1309 107.582 65.5215 107.824C65.9121 108.066 66.2109 108.406 66.418 108.844C66.625 109.277 66.7285 109.785 66.7285 110.367V110.971H62.293C62.3047 111.725 62.4922 112.299 62.8555 112.693C63.2188 113.088 63.7305 113.285 64.3906 113.285C64.7969 113.285 65.1562 113.248 65.4688 113.174C65.7812 113.1 66.1055 112.99 66.4414 112.846V113.701C66.1172 113.846 65.7949 113.951 65.4746 114.018C65.1582 114.084 64.7832 114.117 64.3496 114.117C63.7324 114.117 63.1934 113.992 62.7324 113.742C62.2754 113.488 61.9199 113.117 61.666 112.629C61.4121 112.141 61.2852 111.543 61.2852 110.836C61.2852 110.145 61.4004 109.547 61.6309 109.043C61.8652 108.535 62.1934 108.145 62.6152 107.871C63.041 107.598 63.541 107.461 64.1152 107.461ZM64.1035 108.258C63.584 108.258 63.1699 108.428 62.8613 108.768C62.5527 109.107 62.3691 109.582 62.3105 110.191H65.709C65.7051 109.809 65.6445 109.473 65.5273 109.184C65.4141 108.891 65.2402 108.664 65.0059 108.504C64.7715 108.34 64.4707 108.258 64.1035 108.258ZM69.3535 104.883V107.607C69.3535 107.764 69.3496 107.922 69.3418 108.082C69.334 108.238 69.3203 108.383 69.3008 108.516H69.3652C69.498 108.289 69.666 108.1 69.8691 107.947C70.0762 107.791 70.3105 107.674 70.5723 107.596C70.834 107.514 71.1113 107.473 71.4043 107.473C71.9199 107.473 72.3496 107.555 72.6934 107.719C73.041 107.883 73.3008 108.137 73.4727 108.48C73.6484 108.824 73.7363 109.27 73.7363 109.816V114H72.7754V109.881C72.7754 109.346 72.6523 108.945 72.4062 108.68C72.1641 108.414 71.791 108.281 71.2871 108.281C70.8105 108.281 70.4297 108.373 70.1445 108.557C69.8633 108.736 69.6602 109.002 69.5352 109.354C69.4141 109.705 69.3535 110.135 69.3535 110.643V114H68.3809V104.883H69.3535ZM76.7129 107.578V114H75.7402V107.578H76.7129ZM76.2383 105.176C76.3984 105.176 76.5352 105.229 76.6484 105.334C76.7656 105.436 76.8242 105.596 76.8242 105.814C76.8242 106.029 76.7656 106.189 76.6484 106.295C76.5352 106.4 76.3984 106.453 76.2383 106.453C76.0703 106.453 75.9297 106.4 75.8164 106.295C75.707 106.189 75.6523 106.029 75.6523 105.814C75.6523 105.596 75.707 105.436 75.8164 105.334C75.9297 105.229 76.0703 105.176 76.2383 105.176ZM81.3477 114.117C80.7695 114.117 80.2598 113.998 79.8184 113.76C79.377 113.521 79.0332 113.158 78.7871 112.67C78.541 112.182 78.418 111.566 78.418 110.824C78.418 110.047 78.5469 109.412 78.8047 108.92C79.0664 108.424 79.4258 108.057 79.8828 107.818C80.3398 107.58 80.8594 107.461 81.4414 107.461C81.7617 107.461 82.0703 107.494 82.3672 107.561C82.668 107.623 82.9141 107.703 83.1055 107.801L82.8125 108.615C82.6172 108.537 82.3906 108.467 82.1328 108.404C81.8789 108.342 81.6406 108.311 81.418 108.311C80.9727 108.311 80.6016 108.406 80.3047 108.598C80.0117 108.789 79.791 109.07 79.6426 109.441C79.498 109.812 79.4258 110.27 79.4258 110.812C79.4258 111.332 79.4961 111.775 79.6367 112.143C79.7812 112.51 79.9941 112.791 80.2754 112.986C80.5605 113.178 80.916 113.273 81.3418 113.273C81.6816 113.273 81.9883 113.238 82.2617 113.168C82.5352 113.094 82.7832 113.008 83.0059 112.91V113.777C82.791 113.887 82.5508 113.971 82.2852 114.029C82.0234 114.088 81.7109 114.117 81.3477 114.117ZM85.5078 114H84.5293V104.883H85.5078V114ZM90.0371 107.461C90.584 107.461 91.0527 107.582 91.4434 107.824C91.834 108.066 92.1328 108.406 92.3398 108.844C92.5469 109.277 92.6504 109.785 92.6504 110.367V110.971H88.2148C88.2266 111.725 88.4141 112.299 88.7773 112.693C89.1406 113.088 89.6523 113.285 90.3125 113.285C90.7188 113.285 91.0781 113.248 91.3906 113.174C91.7031 113.1 92.0273 112.99 92.3633 112.846V113.701C92.0391 113.846 91.7168 113.951 91.3965 114.018C91.0801 114.084 90.7051 114.117 90.2715 114.117C89.6543 114.117 89.1152 113.992 88.6543 113.742C88.1973 113.488 87.8418 113.117 87.5879 112.629C87.334 112.141 87.207 111.543 87.207 110.836C87.207 110.145 87.3223 109.547 87.5527 109.043C87.7871 108.535 88.1152 108.145 88.5371 107.871C88.9629 107.598 89.4629 107.461 90.0371 107.461ZM90.0254 108.258C89.5059 108.258 89.0918 108.428 88.7832 108.768C88.4746 109.107 88.291 109.582 88.2324 110.191H91.6309C91.627 109.809 91.5664 109.473 91.4492 109.184C91.3359 108.891 91.1621 108.664 90.9277 108.504C90.6934 108.34 90.3926 108.258 90.0254 108.258Z" fill="white"/>
<path d="M36.1172 71.1133C36.1172 71.9596 35.9089 72.6888 35.4922 73.3008C35.082 73.9128 34.4896 74.3815 33.7148 74.707C32.9466 75.0326 32.0286 75.1953 30.9609 75.1953C30.4401 75.1953 29.9421 75.166 29.4668 75.1074C28.9915 75.0488 28.5423 74.9642 28.1191 74.8535C27.7025 74.7363 27.3216 74.5964 26.9766 74.4336V72.2266C27.556 72.4805 28.2038 72.7116 28.9199 72.9199C29.6361 73.1217 30.3652 73.2227 31.1074 73.2227C31.7129 73.2227 32.2142 73.1445 32.6113 72.9883C33.015 72.8255 33.3145 72.5977 33.5098 72.3047C33.7051 72.0052 33.8027 71.6569 33.8027 71.2598C33.8027 70.8366 33.6888 70.4785 33.4609 70.1855C33.2331 69.8926 32.888 69.6257 32.4258 69.3848C31.9701 69.1374 31.3971 68.8737 30.707 68.5938C30.2383 68.4049 29.7891 68.1901 29.3594 67.9492C28.9362 67.7083 28.5586 67.4251 28.2266 67.0996C27.8945 66.7741 27.6309 66.39 27.4355 65.9473C27.2467 65.498 27.1523 64.9707 27.1523 64.3652C27.1523 63.5579 27.3444 62.8678 27.7285 62.2949C28.1191 61.722 28.666 61.2826 29.3691 60.9766C30.0788 60.6706 30.9056 60.5176 31.8496 60.5176C32.5983 60.5176 33.3014 60.5957 33.959 60.752C34.623 60.9082 35.2741 61.1296 35.9121 61.416L35.1699 63.3008C34.584 63.0599 34.0143 62.8678 33.4609 62.7246C32.9141 62.5814 32.3542 62.5098 31.7812 62.5098C31.2865 62.5098 30.8665 62.5846 30.5215 62.7344C30.1764 62.8841 29.9128 63.0957 29.7305 63.3691C29.5547 63.6361 29.4668 63.9551 29.4668 64.3262C29.4668 64.7428 29.5677 65.0944 29.7695 65.3809C29.9779 65.6608 30.2969 65.918 30.7266 66.1523C31.1628 66.3867 31.7227 66.6471 32.4062 66.9336C33.194 67.2591 33.8613 67.6009 34.4082 67.959C34.9616 68.3171 35.3848 68.7467 35.6777 69.248C35.9707 69.7428 36.1172 70.3646 36.1172 71.1133ZM47.4746 74.9902L46.1074 69.9609C46.0423 69.7135 45.9642 69.4141 45.873 69.0625C45.7819 68.7109 45.6908 68.3496 45.5996 67.9785C45.5085 67.6009 45.4238 67.2526 45.3457 66.9336C45.2741 66.6146 45.2188 66.3672 45.1797 66.1914H45.1016C45.069 66.3672 45.0169 66.6146 44.9453 66.9336C44.8737 67.2526 44.7923 67.6009 44.7012 67.9785C44.61 68.3561 44.5189 68.724 44.4277 69.082C44.3431 69.4401 44.265 69.7461 44.1934 70L42.7578 74.9902H40.2383L37.2109 64.1797H39.5352L40.9414 69.5508C41.0326 69.9154 41.1204 70.3092 41.2051 70.7324C41.2962 71.1556 41.3743 71.5592 41.4395 71.9434C41.5046 72.3275 41.5534 72.6432 41.5859 72.8906H41.6641C41.6901 72.7148 41.7259 72.4935 41.7715 72.2266C41.8171 71.9531 41.8691 71.6699 41.9277 71.377C41.9863 71.0775 42.0449 70.7975 42.1035 70.5371C42.1621 70.2702 42.2174 70.0553 42.2695 69.8926L43.9297 64.1797H46.4395L48.0312 69.8926C48.1029 70.14 48.181 70.4525 48.2656 70.8301C48.3503 71.2012 48.4251 71.5755 48.4902 71.9531C48.5618 72.3242 48.6074 72.6335 48.627 72.8809H48.7051C48.7311 72.6595 48.7767 72.36 48.8418 71.9824C48.9134 71.5983 48.9948 71.1914 49.0859 70.7617C49.1771 70.3255 49.2715 69.9219 49.3691 69.5508L50.8047 64.1797H53.0898L50.043 74.9902H47.4746ZM57.2402 64.1895V75H54.9453V64.1895H57.2402ZM56.1074 60.0488C56.459 60.0488 56.7617 60.1432 57.0156 60.332C57.276 60.5208 57.4062 60.8464 57.4062 61.3086C57.4062 61.7643 57.276 62.0898 57.0156 62.2852C56.7617 62.474 56.459 62.5684 56.1074 62.5684C55.7428 62.5684 55.4336 62.474 55.1797 62.2852C54.9323 62.0898 54.8086 61.7643 54.8086 61.3086C54.8086 60.8464 54.9323 60.5208 55.1797 60.332C55.4336 60.1432 55.7428 60.0488 56.1074 60.0488ZM64.5547 73.3398C64.8542 73.3398 65.1504 73.3138 65.4434 73.2617C65.7363 73.2031 66.0033 73.1348 66.2441 73.0566V74.7949C65.9902 74.9056 65.6615 75 65.2578 75.0781C64.8542 75.1562 64.4342 75.1953 63.998 75.1953C63.3861 75.1953 62.8359 75.0944 62.3477 74.8926C61.8594 74.6842 61.472 74.3294 61.1855 73.8281C60.8991 73.3268 60.7559 72.6335 60.7559 71.748V65.9375H59.2812V64.9121L60.8633 64.1016L61.6152 61.7871H63.0605V64.1895H66.1562V65.9375H63.0605V71.7188C63.0605 72.2656 63.1973 72.6725 63.4707 72.9395C63.7441 73.2064 64.1055 73.3398 64.5547 73.3398ZM72.7969 75.1953C71.7747 75.1953 70.8893 74.9967 70.1406 74.5996C69.3919 74.2025 68.8158 73.5938 68.4121 72.7734C68.0085 71.9531 67.8066 70.9115 67.8066 69.6484C67.8066 68.3333 68.028 67.2591 68.4707 66.4258C68.9134 65.5924 69.5254 64.9772 70.3066 64.5801C71.0944 64.1829 71.9961 63.9844 73.0117 63.9844C73.6562 63.9844 74.2389 64.0495 74.7598 64.1797C75.2871 64.3034 75.7331 64.4564 76.0977 64.6387L75.4141 66.4746C75.0169 66.3118 74.61 66.1751 74.1934 66.0645C73.7767 65.9538 73.3763 65.8984 72.9922 65.8984C72.3607 65.8984 71.8333 66.0384 71.4102 66.3184C70.9935 66.5983 70.681 67.015 70.4727 67.5684C70.2708 68.1217 70.1699 68.8086 70.1699 69.6289C70.1699 70.4232 70.2741 71.0938 70.4824 71.6406C70.6908 72.181 71 72.5911 71.4102 72.8711C71.8203 73.1445 72.3249 73.2812 72.9238 73.2812C73.5163 73.2812 74.0469 73.2096 74.5156 73.0664C74.9844 72.9232 75.4271 72.7376 75.8438 72.5098V74.502C75.4336 74.7363 74.9941 74.9089 74.5254 75.0195C74.0566 75.1367 73.4805 75.1953 72.7969 75.1953ZM80.6777 59.8047V63.623C80.6777 64.0202 80.6647 64.4076 80.6387 64.7852C80.6191 65.1628 80.5964 65.4557 80.5703 65.6641H80.6973C80.9251 65.2865 81.2051 64.9772 81.5371 64.7363C81.8691 64.4889 82.2402 64.3034 82.6504 64.1797C83.0671 64.056 83.5098 63.9941 83.9785 63.9941C84.8053 63.9941 85.5085 64.1341 86.0879 64.4141C86.6673 64.6875 87.11 65.1139 87.416 65.6934C87.7285 66.2728 87.8848 67.0247 87.8848 67.9492V75H85.5898V68.3789C85.5898 67.5391 85.4173 66.9108 85.0723 66.4941C84.7272 66.071 84.1934 65.8594 83.4707 65.8594C82.7741 65.8594 82.2207 66.0059 81.8105 66.2988C81.4069 66.5853 81.1172 67.0117 80.9414 67.5781C80.7656 68.138 80.6777 68.8216 80.6777 69.6289V75H78.3828V59.8047H80.6777ZM96.5273 75V60.7227H98.8711V73.0078H104.936V75H96.5273ZM116.742 69.5703C116.742 70.4688 116.625 71.2663 116.391 71.9629C116.156 72.6595 115.814 73.2487 115.365 73.7305C114.916 74.2057 114.376 74.5703 113.744 74.8242C113.113 75.0716 112.4 75.1953 111.605 75.1953C110.863 75.1953 110.183 75.0716 109.564 74.8242C108.946 74.5703 108.409 74.2057 107.953 73.7305C107.504 73.2487 107.156 72.6595 106.908 71.9629C106.661 71.2663 106.537 70.4688 106.537 69.5703C106.537 68.3789 106.742 67.3698 107.152 66.543C107.569 65.7096 108.161 65.0749 108.93 64.6387C109.698 64.2025 110.613 63.9844 111.674 63.9844C112.67 63.9844 113.549 64.2025 114.311 64.6387C115.072 65.0749 115.668 65.7096 116.098 66.543C116.527 67.3763 116.742 68.3854 116.742 69.5703ZM108.9 69.5703C108.9 70.3581 108.995 71.0319 109.184 71.5918C109.379 72.1517 109.678 72.5814 110.082 72.8809C110.486 73.1738 111.007 73.3203 111.645 73.3203C112.283 73.3203 112.803 73.1738 113.207 72.8809C113.611 72.5814 113.907 72.1517 114.096 71.5918C114.285 71.0319 114.379 70.3581 114.379 69.5703C114.379 68.7826 114.285 68.1152 114.096 67.5684C113.907 67.015 113.611 66.5951 113.207 66.3086C112.803 66.0156 112.279 65.8691 111.635 65.8691C110.684 65.8691 109.991 66.1882 109.555 66.8262C109.118 67.4642 108.9 68.3789 108.9 69.5703ZM123.734 75.1953C122.712 75.1953 121.827 74.9967 121.078 74.5996C120.329 74.2025 119.753 73.5938 119.35 72.7734C118.946 71.9531 118.744 70.9115 118.744 69.6484C118.744 68.3333 118.965 67.2591 119.408 66.4258C119.851 65.5924 120.463 64.9772 121.244 64.5801C122.032 64.1829 122.934 63.9844 123.949 63.9844C124.594 63.9844 125.176 64.0495 125.697 64.1797C126.225 64.3034 126.671 64.4564 127.035 64.6387L126.352 66.4746C125.954 66.3118 125.548 66.1751 125.131 66.0645C124.714 65.9538 124.314 65.8984 123.93 65.8984C123.298 65.8984 122.771 66.0384 122.348 66.3184C121.931 66.5983 121.618 67.015 121.41 67.5684C121.208 68.1217 121.107 68.8086 121.107 69.6289C121.107 70.4232 121.212 71.0938 121.42 71.6406C121.628 72.181 121.938 72.5911 122.348 72.8711C122.758 73.1445 123.262 73.2812 123.861 73.2812C124.454 73.2812 124.984 73.2096 125.453 73.0664C125.922 72.9232 126.365 72.7376 126.781 72.5098V74.502C126.371 74.7363 125.932 74.9089 125.463 75.0195C124.994 75.1367 124.418 75.1953 123.734 75.1953ZM131.615 59.8047V67.1484C131.615 67.4805 131.602 67.8451 131.576 68.2422C131.55 68.6328 131.524 69.0007 131.498 69.3457H131.547C131.716 69.1178 131.918 68.8509 132.152 68.5449C132.393 68.2389 132.621 67.972 132.836 67.7441L136.137 64.1895H138.773L134.447 68.8379L139.057 75H136.361L132.904 70.2539L131.615 71.3574V75H129.32V59.8047H131.615Z" fill="white"/>
<path d="M248.918 107.269C248.918 110.307 251.381 112.769 254.418 112.769C257.456 112.769 259.918 110.307 259.918 107.269H248.918ZM198.905 45.5C198.905 48.5376 201.367 51 204.405 51C207.442 51 209.905 48.5376 209.905 45.5H198.905ZM248.918 48.0067V107.269H259.918V48.0067H248.918ZM226.905 28.5H229.411V17.5H226.905V28.5ZM259.918 48.0067C259.918 31.1583 246.26 17.5 229.411 17.5V28.5C240.185 28.5 248.918 37.2335 248.918 48.0067H259.918ZM226.905 17.5C211.441 17.5 198.905 30.036 198.905 45.5H209.905C209.905 36.1112 217.516 28.5 226.905 28.5V17.5Z" fill="#0057FF"/>
<mask id="mask0_143_76" style="mask-type:alpha" maskUnits="userSpaceOnUse" x="200" y="15" width="59" height="100">
<rect x="211" y="26" width="37" height="78" rx="18.5" stroke="#601CD9" stroke-width="22"/>
</mask>
<g mask="url(#mask0_143_76)">
<g filter="url(#filter1_f_143_76)">
<path d="M254.418 107.269V48.0067C254.418 34.1959 243.222 23 229.411 23H228.905C215.374 23 204.405 33.969 204.405 47.5V47.5" stroke="white" stroke-width="1.84003"/>
</g>
</g>
<g opacity="0.5" filter="url(#filter2_d_143_76)">
<path fill-rule="evenodd" clip-rule="evenodd" d="M252.267 79.9999C251.759 79.9999 251.347 79.588 251.347 79.0799V56.5639C251.347 56.0474 251.329 55.5353 251.292 55.0282C251.253 54.4803 251.677 53.9999 252.226 53.9999V53.9999C252.693 53.9999 253.087 54.3506 253.122 54.8158C253.165 55.3928 253.187 55.9758 253.187 56.5639V79.0799C253.187 79.588 252.776 79.9999 252.267 79.9999V79.9999Z" fill="white"/>
</g>
<rect x="243.457" y="67.3111" width="15.7577" height="40.4219" rx="7.87884" fill="#0847E6"/>
<mask id="mask1_143_76" style="mask-type:alpha" maskUnits="userSpaceOnUse" x="243" y="67" width="17" height="41">
<rect x="243.457" y="67.3111" width="15.7577" height="40.4219" rx="7.87884" fill="#0847E6"/>
</mask>
<g mask="url(#mask1_143_76)">
<g filter="url(#filter3_f_143_76)">
<path d="M240.716 67.9962H261.269" stroke="white" stroke-width="1.84003"/>
</g>
</g>
<rect x="199.609" y="67.3111" width="15.7577" height="40.4219" rx="7.87884" fill="#0847E6"/>
<mask id="mask2_143_76" style="mask-type:alpha" maskUnits="userSpaceOnUse" x="199" y="67" width="17" height="41">
<rect x="199.609" y="67.3111" width="15.7577" height="40.4219" rx="7.87884" fill="#0847E6"/>
</mask>
<g mask="url(#mask2_143_76)">
<g filter="url(#filter4_f_143_76)">
<path d="M196.868 67.9962H217.422" stroke="white" stroke-width="1.84003"/>
</g>
</g>
<path opacity="0.55" d="M254 68.9999L254 78.9999" stroke="url(#paint0_linear_143_76)" stroke-width="1.84003" stroke-linecap="round"/>
<path opacity="0.22" d="M209.886 67.3111V78.9581" stroke="url(#paint1_linear_143_76)" stroke-width="1.84003"/>
<circle cx="229.5" cy="107.479" r="40.0793" fill="#4182FF"/>
<path d="M237.831 141.033C238.199 142.516 239.703 143.429 241.154 142.952C245.976 141.368 250.434 138.814 254.249 135.437C258.755 131.448 262.23 126.429 264.379 120.807C266.527 115.185 267.285 109.128 266.587 103.15C265.996 98.0896 264.377 93.2137 261.841 88.8178C261.078 87.4948 259.348 87.1721 258.085 88.0313V88.0313C256.822 88.8905 256.506 90.6057 257.252 91.9384C259.297 95.5896 260.605 99.6167 261.093 103.791C261.687 108.883 261.042 114.044 259.212 118.833C257.382 123.622 254.421 127.898 250.582 131.296C247.435 134.081 243.775 136.209 239.816 137.567C238.371 138.062 237.463 139.551 237.831 141.033V141.033Z" fill="white" fill-opacity="0.5"/>
<g style="mix-blend-mode:multiply" opacity="0.99" filter="url(#filter5_f_143_76)">
<circle cx="229.5" cy="107.479" r="33.9133" fill="#0066C5"/>
</g>
<circle opacity="0.9" cx="229.5" cy="107.479" r="20.896" fill="#B3E3FF"/>
<path d="M227.103 115V109.896H222V104.103H227.103V98.9999H232.897V104.103H238V109.896H232.897V115H227.103Z" fill="white"/>
<defs>
<filter id="filter0_d_143_76" x="0" y="0" width="305" height="170" filterUnits="userSpaceOnUse" color-interpolation-filters="sRGB">
<feFlood flood-opacity="0" result="BackgroundImageFix"/>
<feColorMatrix in="SourceAlpha" type="matrix" values="0 0 0 0 0 0 0 0 0 0 0 0 0 0 0 0 0 0 127 0" result="hardAlpha"/>
<feOffset dx="1" dy="1"/>
<feGaussianBlur stdDeviation="2"/>
<feComposite in2="hardAlpha" operator="out"/>
<feColorMatrix type="matrix" values="0 0 0 0 0 0 0 0 0 0 0 0 0 0 0 0 0 0 0.25 0"/>
<feBlend mode="normal" in2="BackgroundImageFix" result="effect1_dropShadow_143_76"/>
<feBlend mode="normal" in="SourceGraphic" in2="effect1_dropShadow_143_76" result="shape"/>
</filter>
<filter id="filter1_f_143_76" x="197.965" y="16.5599" width="62.8937" height="96.2295" filterUnits="userSpaceOnUse" color-interpolation-filters="sRGB">
<feFlood flood-opacity="0" result="BackgroundImageFix"/>
<feBlend mode="normal" in="SourceGraphic" in2="BackgroundImageFix" result="shape"/>
<feGaussianBlur stdDeviation="2.76004" result="effect1_foregroundBlur_143_76"/>
</filter>
<filter id="filter2_d_143_76" x="243.93" y="53.9999" width="16.6178" height="40.7202" filterUnits="userSpaceOnUse" color-interpolation-filters="sRGB">
<feFlood flood-opacity="0" result="BackgroundImageFix"/>
<feColorMatrix in="SourceAlpha" type="matrix" values="0 0 0 0 0 0 0 0 0 0 0 0 0 0 0 0 0 0 127 0" result="hardAlpha"/>
<feOffset dy="7.36011"/>
<feGaussianBlur stdDeviation="3.68005"/>
<feComposite in2="hardAlpha" operator="out"/>
<feColorMatrix type="matrix" values="0 0 0 0 0 0 0 0 0 0 0 0 0 0 0 0 0 0 0.25 0"/>
<feBlend mode="normal" in2="BackgroundImageFix" result="effect1_dropShadow_143_76"/>
<feBlend mode="normal" in="SourceGraphic" in2="effect1_dropShadow_143_76" result="shape"/>
</filter>
<filter id="filter3_f_143_76" x="235.196" y="61.5561" width="31.5937" height="12.8802" filterUnits="userSpaceOnUse" color-interpolation-filters="sRGB">
<feFlood flood-opacity="0" result="BackgroundImageFix"/>
<feBlend mode="normal" in="SourceGraphic" in2="BackgroundImageFix" result="shape"/>
<feGaussianBlur stdDeviation="2.76004" result="effect1_foregroundBlur_143_76"/>
</filter>
<filter id="filter4_f_143_76" x="191.348" y="61.5561" width="31.5937" height="12.8802" filterUnits="userSpaceOnUse" color-interpolation-filters="sRGB">
<feFlood flood-opacity="0" result="BackgroundImageFix"/>
<feBlend mode="normal" in="SourceGraphic" in2="BackgroundImageFix" result="shape"/>
<feGaussianBlur stdDeviation="2.76004" result="effect1_foregroundBlur_143_76"/>
</filter>
<filter id="filter5_f_143_76" x="155.106" y="33.085" width="148.788" height="148.788" filterUnits="userSpaceOnUse" color-interpolation-filters="sRGB">
<feFlood flood-opacity="0" result="BackgroundImageFix"/>
<feBlend mode="normal" in="SourceGraphic" in2="BackgroundImageFix" result="shape"/>
<feGaussianBlur stdDeviation="20.2403" result="effect1_foregroundBlur_143_76"/>
</filter>
<linearGradient id="paint0_linear_143_76" x1="254.469" y1="-236.017" x2="255.58" y2="-236.017" gradientUnits="userSpaceOnUse">
<stop stop-color="white"/>
<stop offset="1" stop-color="#464DF5"/>
</linearGradient>
<linearGradient id="paint1_linear_143_76" x1="210.354" y1="-287.942" x2="211.466" y2="-287.942" gradientUnits="userSpaceOnUse">
<stop stop-color="white"/>
<stop offset="1" stop-color="#464DF5"/>
</linearGradient>
</defs>
</svg>
